<?xml version="1.0" standalone="no"?>
<!DOCTYPE svg PUBLIC "-//W3C//DTD SVG 1.1//EN" "https://www.w3.org/Graphics/SVG/1.1/DTD/svg11.dtd" >
<svg xmlns="https://www.w3.org/2000/svg">
<metadata>
Created by FontForge 20120731 at Thu Apr 27 22:02:21 2017
 By admin
</metadata>
<defs>
<font id="iconfont" horiz-adv-x="1024" >
  <font-face 
    font-family="iconfont"
    font-weight="500"
    font-stretch="normal"
    units-per-em="1024"
    panose-1="2 0 6 3 0 0 0 0 0 0"
    ascent="896"
    descent="-128"
    x-height="792"
    bbox="-6 -224.128 1029 896"
    underline-thickness="0"
    underline-position="0"
    unicode-range="U+0078-E835"
  />
<missing-glyph 
 />
    <glyph glyph-name=".notdef" 
 />
    <glyph glyph-name=".notdef" 
 />
    <glyph glyph-name=".null" horiz-adv-x="0" 
 />
    <glyph glyph-name="nonmarkingreturn" horiz-adv-x="341" 
 />
    <glyph glyph-name="x" unicode="x" horiz-adv-x="1001" 
d="M281 543q-27 -1 -53 -1h-83q-18 0 -36.5 -6t-32.5 -18.5t-23 -32t-9 -45.5v-76h912v41q0 16 -0.5 30t-0.5 18q0 13 -5 29t-17 29.5t-31.5 22.5t-49.5 9h-133v-97h-438v97zM955 310v-52q0 -23 0.5 -52t0.5 -58t-10.5 -47.5t-26 -30t-33 -16t-31.5 -4.5q-14 -1 -29.5 -0.5
t-29.5 0.5h-32l-45 128h-439l-44 -128h-29h-34q-20 0 -45 1q-25 0 -41 9.5t-25.5 23t-13.5 29.5t-4 30v167h911zM163 247q-12 0 -21 -8.5t-9 -21.5t9 -21.5t21 -8.5q13 0 22 8.5t9 21.5t-9 21.5t-22 8.5zM316 123q-8 -26 -14 -48q-5 -19 -10.5 -37t-7.5 -25t-3 -15t1 -14.5
t9.5 -10.5t21.5 -4h37h67h81h80h64h36q23 0 34 12t2 38q-5 13 -9.5 30.5t-9.5 34.5q-5 19 -11 39h-368zM336 498v228q0 11 2.5 23t10 21.5t20.5 15.5t34 6h188q31 0 51.5 -14.5t20.5 -52.5v-227h-327z" />
    <glyph glyph-name="gouwuchekong" unicode="&#xe600;" horiz-adv-x="1028" 
d="M333 105q19 0 36.5 -7t30.5 -19.5t20.5 -30t7.5 -37t-7.5 -37t-20.5 -30.5t-30.5 -20.5t-36.5 -7.5q-21 0 -38 7.5t-30 20.5t-20.5 30.5t-7.5 37t7.5 37t20.5 30t30 19.5t38 7zM758.5 103q19.5 0 37.5 -7t31 -20t20.5 -30t7.5 -36.5t-7.5 -37t-20.5 -30.5t-31 -20.5
t-37.5 -7.5t-36.5 7.5t-30 20.5t-20.5 30.5t-7.5 37t7.5 36.5t20.5 30t30 20t36.5 7zM931 685q28 0 44 -7.5t23 -19t6.5 -24t-4 -22t-13.5 -38t-22 -63t-23.5 -68t-18.5 -53.5q-14 -41 -34 -57t-49 -16h-36h-66h-86h-96h-254l14 -92h518q49 0 49 -42q0 -20 -10 -35.5
t-38 -14.5h-50h-94h-119h-119h-100h-55q-20 0 -34 9.5t-23.5 24t-15 32t-8.5 32.5q-1 7 -5.5 30.5t-11 58.5t-15 78.5t-16.5 87.5q-19 104 -44 231h-77q-15 0 -25.5 7.5t-17 18.5t-9 23t-2.5 22q0 21 14 34.5t37 12.5h103q21 0 33.5 -6.5t19.5 -15.5t10 -19t5 -17
q2 -8 4 -23l4 -30q3 -18 6 -39h701zM893 594l-641 2l36 -185l535 -1z" />
    <glyph glyph-name="shu" unicode="&#xe604;" 
d="M819 670q-32 0 -54 20t-22 48t22 48t54 20t54.5 -20t22.5 -48t-22.5 -48t-54.5 -20zM793 458q29 -3 50.5 -10.5t36 -17.5t23 -22.5t13.5 -24.5q12 -29 5 -65q-2 -19 -7 -43q-3 -20 -8 -48t-13 -63q-9 -35 -30 -55.5t-45.5 -31.5t-49 -15.5t-38.5 -4.5q-20 -1 -39 1t-36 4
l-35 6l29 72q16 -2 34.5 -1.5t36 6.5t31 17t16.5 32q4 29 9 63.5t7 53.5q1 10 0.5 21t-6.5 21.5t-21 17t-42 6.5h-225v-345h-142v345h-272l19 82h253v161h-199l14 74h185v96h142v-96h3h160q64 0 96 -19t45 -41q14 -27 11 -60q-1 -16 -3 -34q-2 -17 -4 -38t-4 -44zM489 459
h190q2 19 4.5 38t4.5 34q2 19 3 35q0 11 -1.5 20.5t-8.5 17t-20.5 12t-35.5 4.5h-136v-161z" />
    <glyph glyph-name="gengduo" unicode="&#xe61b;" 
d="M122 420q-49 0 -84 -34.5t-35 -83.5t35 -84t84 -35t83.5 35t34.5 84t-34.5 83.5t-83.5 34.5zM500 420q-49 0 -84 -34.5t-35 -83.5t35 -84t84 -35t84 35t35 84t-35 83.5t-84 34.5zM902 420q-49 0 -84 -34.5t-35 -83.5t35 -84t84 -35t83.5 35t34.5 84t-34.5 83.5
t-83.5 34.5z" />
    <glyph glyph-name="rili" unicode="&#xe629;" 
d="M711.5 521q18.5 0 32 13t13.5 31v200q0 19 -13.5 31.5t-32 12.5t-31.5 -12.5t-13 -31.5v-200q0 -18 13 -31t31.5 -13zM623 699h-222v-67h222v67zM884 699h-83v-67h86q19 0 33 -13.5t14 -32.5v-154h-844v154q0 19 14 32.5t33 13.5h87v67h-83q-48 0 -82.5 -34.5
t-34.5 -82.5v-677q0 -48 33.5 -82.5t81.5 -34.5h745q48 0 82.5 34.5t34.5 82.5v677q0 48 -34.5 82.5t-82.5 34.5zM934 -98q0 -19 -14 -33t-33 -14h-750q-19 0 -33 14t-14 33v464h844v-464zM267 166q28 0 47.5 19.5t19.5 47t-19.5 47.5t-47.5 20t-47.5 -20t-19.5 -47.5
t19.5 -47t47.5 -19.5zM511.5 166q27.5 0 47 19.5t19.5 47t-19.5 47.5t-47 20t-47 -20t-19.5 -47.5t19.5 -47t47 -19.5zM266 -79q28 0 47.5 19.5t19.5 47.5t-19.5 47.5t-47.5 19.5t-47.5 -19.5t-19.5 -47.5t19.5 -47.5t47.5 -19.5zM511.5 -79q27.5 0 47 19.5t19.5 47.5
t-19.5 47.5t-47 19.5t-47 -19.5t-19.5 -47.5t19.5 -47.5t47 -19.5zM755.5 166q27.5 0 47 19.5t19.5 47t-19.5 47.5t-47 20t-47 -20t-19.5 -47.5t19.5 -47t47 -19.5zM311.5 521q18.5 0 32 13t13.5 31v200q0 19 -13.5 31.5t-32 12.5t-31 -12.5t-12.5 -31.5v-200
q0 -18 12.5 -31t31 -13z" />
    <glyph glyph-name="xinyuandan" unicode="&#xe617;" 
d="M512 508q-31 72 -81.5 118.5t-105 61.5t-111 3t-101 -49t-72.5 -102.5t-29 -149.5q0 -42 28 -93.5t70 -99t99.5 -100.5t106 -92t99.5 -80.5t71 -59.5q11 -11 26 -11t26 10q20 19 70.5 60.5t99.5 81t106 93t99.5 101t71 99.5t28.5 93q-1 84 -30 149t-74 100t-101.5 46.5
t-111 -4t-104.5 -61t-80 -114.5z" />
    <glyph glyph-name="gouwuche" unicode="&#xe653;" 
d="M482.5 83q-24.5 0 -42 -17.5t-17.5 -42.5t17.5 -42.5t42 -17.5t42 17.5t17.5 42.5t-17.5 42.5t-42 17.5zM769 83q-25 0 -42.5 -17.5t-17.5 -42.5t17.5 -42.5t42.5 -17.5t42.5 17.5t17.5 42.5t-17.5 42.5t-42.5 17.5zM839 193h-417l-143 425q-7 18 -29 18h-127
q-13 0 -22 -8t-9 -20.5t9 -20.5t22 -8h105l143 -424q7 -19 29 -19h439q13 0 21.5 8t8.5 20.5t-8.5 20.5t-21.5 8zM904 524l-516 45q-12 1 -18.5 -7t-1.5 -20l90 -270q4 -12 16 -21.5t24 -9.5h377q12 0 22 10t11 23l23 216q2 12 -6 22t-21 12z" />
    <glyph glyph-name="icon" unicode="&#xe615;" 
d="M480.5 72q-26.5 0 -45.5 -19t-19 -45.5t19 -45t45.5 -18.5t45 18.5t18.5 45t-18.5 45.5t-45 19zM849 386q-69 0 -117.5 48.5t-48.5 117.5q0 2 0.5 6.5t0.5 6.5l-305 27q-13 1 -19.5 -7.5t-2.5 -21.5l97 -289q4 -13 17 -23t26 -10h403q13 0 24 10.5t12 24.5l16 147
q-46 -37 -103 -37zM786.5 72q-26.5 0 -45 -19t-18.5 -45.5t18.5 -45t45 -18.5t45.5 18.5t19 45t-19 45.5t-45.5 19zM862 190h-446l-154 454q-7 20 -31 20h-136q-13 0 -22.5 -8.5t-9.5 -22t9.5 -22t22.5 -8.5h113l153 -455q7 -19 31 -19h470q14 0 23.5 8.5t9.5 21.5t-9.5 22
t-23.5 9zM849 664q-46 0 -79 -33t-33 -79t33 -79t79 -33t79 33t33 79t-33 79t-79 33zM916 534h-49v-49h-36v49h-49v36h49v49h36v-49h49v-36z" />
    <glyph glyph-name="gouwuche11" unicode="&#xe768;" 
d="M823 115l132 384h-683l-52 229h-155v-30h126l160 -653q-26 -7 -43 -29.5t-17 -50.5q0 -35 24.5 -59t59 -24t59 24t24.5 59q0 29 -18 51h225q-17 -22 -17 -51q0 -35 24.5 -59t59 -24t59 24t24.5 59t-24.5 59.5t-59.5 24.5v0h-348l-17 64zM374 -85q-21 0 -35.5 14.5
t-14.5 35.5t14.5 35.5t35.5 14.5t35.5 -14.5t14.5 -35.5t-14.5 -35.5t-35.5 -14.5zM781 -35q0 -21 -14.5 -35.5t-35 -14.5t-35.5 14.5t-15 35.5t15 35.5t35.5 14.5t35 -14.5t14.5 -35.5z" />
    <glyph glyph-name="gouwuche2" unicode="&#xe780;" 
d="M457 35zM401 35q0 23 16.5 39.5t40 16.5t40 -16.5t16.5 -39.5t-16.5 -39.5t-40 -16.5t-40 16.5t-16.5 39.5zM820 35zM764 35q0 23 16.5 39.5t40 16.5t40 -16.5t16.5 -39.5t-16.5 -39.5t-40 -16.5t-40 16.5t-16.5 39.5zM395 548l-180 70v0v0h-152v-32h162l134 -420h548
l50 381zM444 284q0 -6 -4.5 -9.5t-10.5 -3.5h-2q-6 0 -10.5 3.5t-4.5 9.5v147q0 5 4.5 8.5t10.5 3.5h2q6 0 10.5 -3.5t4.5 -8.5v-147zM525 284q0 -6 -4.5 -9.5t-10.5 -3.5h-2q-6 0 -10.5 3.5t-4.5 9.5v147q0 5 4.5 8.5t10.5 3.5h2q6 0 10.5 -3.5t4.5 -8.5v-147zM611 284
q0 -6 -4 -9.5t-11 -3.5h-2q-6 0 -10.5 3.5t-4.5 9.5v147q0 5 4.5 8.5t10.5 3.5h2q7 0 11 -3.5t4 -8.5v-147zM691 284q0 -6 -4.5 -9.5t-10.5 -3.5h-2q-6 0 -10.5 3.5t-4.5 9.5v147q0 5 4.5 8.5t10.5 3.5h2q6 0 10.5 -3.5t4.5 -8.5v-147zM776 284q0 -6 -4.5 -9.5t-10.5 -3.5
h-2q-6 0 -10.5 3.5t-4.5 9.5v147q0 5 4.5 8.5t10.5 3.5h2q6 0 10.5 -3.5t4.5 -8.5v-147zM859 284q0 -6 -4.5 -9.5t-10.5 -3.5h-2q-6 0 -10.5 3.5t-4.5 9.5v147q0 5 4.5 8.5t10.5 3.5h2q6 0 10.5 -3.5t4.5 -8.5v-147z" />
    <glyph glyph-name="hongbao" unicode="&#xe6bd;" 
d="M832 -212h-576q-53 0 -90.5 37.5t-37.5 90.5v640l384 -128h64l384 128v-640q0 -53 -37.5 -90.5t-90.5 -37.5zM577 110h93q31 0 32 27q1 11 -8.5 23.5t-23.5 12.5h-93v23q70 72 89 88q27 25 11 44q-9 10 -22 10t-24 -10l-87 -79q-62 64 -75 77q-11 10 -25 13.5t-26 -6.5
q-9 -14 -6 -25.5t11 -19.5l87 -91l-1 -25h-96q-10 0 -18.5 -13.5t-8.5 -25.5q0 -10 7.5 -17t19.5 -7l96 1v-69h-100q-11 0 -19 -8.5t-8 -19.5q-1 -11 7 -21.5t20 -10.5h100v-33q2 -30 35 -31q14 0 23.5 9.5t9.5 20.5l-1 34q84 1 99 0q12 0 20 10t7 22q-1 29 -34 29h-91v68z
M576 492h-64l-384 128q0 53 37.5 90.5t90.5 37.5h576q53 0 90.5 -37.5t37.5 -90.5z" />
    <glyph glyph-name="ketang" unicode="&#xe60e;" 
d="M586 109l72 -93q8 -10 0 -20.5t-17 -0.5l-91 114h-67l-91 -114q-8 -10 -16.5 0.5t0.5 20.5l72 93h-163q-5 0 -8 3t-3 7v278q0 4 3 7t8 3h454q5 0 8 -3t3 -7v-278q0 -4 -3 -7t-8 -3h-153v0zM512 -212q139 0 257 68.5t186.5 186.5t68.5 257t-68.5 257t-186.5 186.5
t-257 68.5t-257 -68.5t-186.5 -186.5t-68.5 -257t68.5 -257t186.5 -186.5t257 -68.5zM245 492h534v-43h-534v43z" />
    <glyph glyph-name="wo" unicode="&#xe607;" 
d="M521.5 721q-117.5 0 -217 -58t-157.5 -157.5t-58 -217t58 -217t157.5 -157.5t217 -58t217 58t157.5 157.5t58 217t-58 217t-157.5 157.5t-217 58zM805 6q-28 63 -80 108t-119 63q42 23 67 64.5t25 90.5q0 73 -52 124.5t-125 51.5t-124.5 -51.5t-51.5 -124.5
q0 -51 26 -92.5t69 -64.5q-66 -19 -117 -65.5t-77 -110.5q-59 56 -92 131t-33 159q0 108 53.5 200.5t146 146t201 53.5t201 -53.5t146 -146t53.5 -200.5q0 -82 -31 -155t-86 -128z" />
    <glyph glyph-name="gouwuche1" unicode="&#xe627;" 
d="M511 862q-97 0 -185.5 -38t-152.5 -102t-102 -152t-38 -185.5t38 -186t102 -152t152.5 -101.5t185.5 -38q169 0 300 107l54 50q58 65 90.5 147.5t32.5 172.5q0 98 -37.5 186t-101.5 152t-152.5 102t-185.5 38zM442 42q-21 0 -35.5 14.5t-14.5 35.5t14.5 35.5t35.5 14.5
t35.5 -14.5t14.5 -35.5t-14.5 -35.5t-35.5 -14.5zM659 42q-20 0 -35 14.5t-15 35.5t15 35.5t35.5 14.5t35.5 -14.5t15 -35.5t-15 -35.5t-36 -14.5v0zM810 508l-61 -188q-3 -14 -15 -23t-24 -5h-301l12 -50h272q14 0 23.5 -10t9.5 -23.5t-9.5 -23.5t-23.5 -10h-284
q-5 -1 -11 0h-6q-14 0 -23.5 10t-9.5 24l-76 295q-8 10 -8 21q0 3 1 6l-16 61h-35q-14 0 -24 9.5t-10 23.5t10 23.5t24 9.5h50q4 2 11 0h6q14 0 23.5 -9.5t9.5 -23.5l17 -67h421q7 2 13 0q14 0 24 -9.5t10 -23.5l-1 -4q2 -7 1 -13z" />
    <glyph glyph-name="yunketang" unicode="&#xe647;" 
d="M352 288q33 0 56.5 -5.5t23.5 -14t-23.5 -14t-56.5 -5.5v39zM812 339v0q0 125 -88.5 214.5t-211.5 89.5q-110 0 -193 -69.5t-103 -176.5q-85 -12 -142 -77t-57 -153q0 -96 68 -163t162 -67h569q82 3 136.5 61.5t54.5 141.5q3 79 -55 137.5t-140 61.5zM668 38
q-6 -4 -18 -10.5t-52.5 -17.5t-85.5 -11q-28 0 -52.5 4.5t-39.5 10t-25.5 11.5t-14.5 9.5l-4 3.5v121q5 6 16 14.5t48.5 22.5t79 14t78.5 -12.5t54 -25.5l16 -13v-121zM684 175q-3 3 -8.5 7.5t-22.5 16.5t-35 21.5t-45 17t-53 7.5q-42 0 -87.5 -17.5t-70.5 -35.5l-25 -17
l-51 19v-62q15 -8 15 -19.5t-15 -19.5l15 -66h-42l15 66q-12 6 -12 19.5t12 19.5v70l-74 31l328 145l300 -148z" />
    <glyph glyph-name="zidian2" unicode="&#xe652;" 
d="M969 667v91h-86v-193h86v102zM883 486h55v-195h-55v195zM0 739v-833v-28v0q1 -37 28.5 -63.5t65.5 -26.5h731v60h-731q-13 0 -22.5 9.5t-9.5 22.5t9.5 22.5t22.5 9.5h731v51v9v840h-754q-26 -6 -45.5 -26t-25.5 -47zM268 595h416v-73h-416v73zM268 400h416v-72h-416v72z
M268 206h416v-72h-416v72zM127 595h72v-73h-72v73zM127 400h72v-72h-72v72zM127 206h72v-72h-72v72zM883 212h122v-203h-122v203z" />
    <glyph glyph-name="wode" unicode="&#xe609;" 
d="M512 773q-96 0 -183.5 -37.5t-151 -101t-100.5 -151t-37 -183.5t37 -183.5t100.5 -150.5t151 -100.5t183.5 -37.5t183.5 37.5t151 100.5t100.5 150.5t37 183.5t-37 183.5t-100.5 151t-151 101t-183.5 37.5zM512 -129q-117 0 -216 57.5t-156.5 156t-57.5 215.5t57.5 216
t156.5 156.5t216 57.5t216 -57.5t156.5 -156.5t57.5 -216t-57.5 -215.5t-156.5 -156t-216 -57.5zM792 -50v2q0 3 -1 6q-9 77 -55.5 138t-116.5 91q41 28 64.5 72t23.5 95q0 83 -59 142.5t-143 59.5t-143 -59.5t-59 -142.5q0 -51 23.5 -95t64.5 -72q-69 -30 -115.5 -90
t-56.5 -136q-2 -4 -2 -9v-2v0v0v-1q0 -12 8.5 -20.5t20.5 -8.5t20.5 8.5t8.5 20.5v1h1q10 82 71 139.5t145 62.5q7 -1 13 -1t12 1q84 -5 145.5 -62.5t71.5 -139.5h1v-1q0 -12 8.5 -20.5t20 -8.5t20 8.5t8.5 20.5v1v0v0zM505 209q-60 0 -102.5 42.5t-42.5 102t42.5 102
t102.5 42.5t102 -42.5t42 -102t-42 -102t-102 -42.5v0zM505 209z" />
    <glyph glyph-name="wode2" unicode="&#xe63d;" 
d="M505 727q-89 0 -170 -34.5t-139 -93t-93 -139.5t-35 -169.5t35 -169.5t93 -139.5t139 -93t170 -34.5t169.5 34.5t139 93t93 139.5t34.5 169.5t-34.5 169.5t-93 139.5t-139 93t-169.5 34.5zM505 685q107 0 198 -52.5t144 -143.5t53 -199q0 -134 -82 -241q-24 65 -71 115
t-109 78q54 55 54 132t-55 132t-132.5 55t-132 -55t-54.5 -132t54 -132q-63 -28 -110 -78t-70 -115q-82 107 -82 241q0 108 53 199t144 143.5t198 52.5zM355 373.5q0 61.5 44 105.5t106 44t105.5 -44t43.5 -105.5t-43.5 -105.5t-105.5 -44t-106 44t-44 105.5zM505 -104
q-81 0 -153.5 30.5t-127.5 86.5q19 70 68.5 123t117.5 76q44 -26 95 -26t94 26q68 -23 118 -76t69 -123q-55 -56 -127.5 -86.5t-153.5 -30.5z" />
    <glyph glyph-name="gouwuche4" unicode="&#xe62a;" 
d="M269 728q-3 -15 7 -51q90 -344 103 -391q2 -10 12 -10q224 1 457 1q10 -1 12 9q15 53 80 294q0 1 2 10h-12h-561q-9 0 -10.5 1.5t-1.5 9.5v38q10 1 11 1h610q19 0 28 -21v-7q-7 -13 -11.5 -26.5t-9.5 -34.5t-7 -27q-11 -42 -76 -283q-3 -11 -5.5 -13t-14.5 -2h-475h-12
q16 -64 18 -69q1 -4 2 -10q2 -7 3.5 -8t10.5 -1h8h230.5h171.5q19 0 24.5 -18t-10.5 -27q-7 -5 -13 -5h-457q-9 0 -8 6q0 10 -2 20.5t-6 24t-6 19.5q-7 34 -15 58q-5 16 -12 46.5t-11 42.5q-2 9 -24 91q-11 43 -24 90q-3 12 -11 43t-13 48q-22 85 -23 90q-3 10 -13 10h-192
v51h246zM490 -138q-15 4 -16 4q-31 9 -49 34t-15 55q3 34 26.5 56t56.5 23q37 1 62.5 -22t28.5 -59q2 -31 -19.5 -57.5t-52.5 -31.5l-8 -2h-14zM444 -51q0 -22 15.5 -37.5t37.5 -15.5t37.5 15.5t15.5 37.5t-15.5 37.5t-37.5 14.5q-22 0 -37.5 -15t-15.5 -37v0zM736 -138
l-16 4q-31 9 -49 34t-15 55q3 34 26.5 56t56.5 23q37 1 62.5 -22t28.5 -59q2 -31 -19.5 -57.5t-52.5 -31.5l-8 -2h-14zM796 -51q0 22 -15.5 37t-37.5 15t-38 -15t-16 -37t16 -37.5t38 -15.5t37.5 15.5t15.5 37.5v0z" />
    <glyph glyph-name="mianfei" unicode="&#xe626;" 
d="M358 388h118v-88h-118v88zM591 481h-196l-37 -50h187zM519 388h131v-88h-131v88zM512 711q-112 0 -206.5 -55t-149.5 -149.5t-55 -206.5t55 -206.5t149.5 -149.5t206.5 -55t206.5 55t149.5 149.5t55 206.5t-55 206.5t-149.5 149.5t-206.5 55zM739 82h-241v158l-225 -177
v55l177 140h-137v115l-6 -8h-54l139 186h57l-22 -28h260l-83 -92h90v-173h-178v-3l-5 -5h31v-126h154l7 109l43 -26z" />
    <glyph glyph-name="jiaruwomen" unicode="&#xe60f;" 
d="M884 277h-78v76q0 24 -17.5 41.5t-42.5 17.5t-42.5 -17.5t-17.5 -41.5v-76h-79q-25 0 -42.5 -17.5t-17.5 -42t17.5 -41.5t42.5 -17h79v-77q0 -24 17.5 -41.5t42.5 -17.5t42.5 17.5t17.5 41.5v77h78q25 0 43 17t18 41.5t-18 42t-43 17.5zM414 394q65 0 111.5 45t46.5 109
t-46.5 109t-111.5 45t-111 -45t-46 -109t46 -109t111 -45zM596 92q-3 0 -8.5 -0.5t-20.5 1t-28 4.5t-29.5 12t-27 21.5t-17 34.5t-4.5 50q6 73 83 95q-63 40 -133 40q-84 0 -156 -57t-114 -155.5t-42 -214.5q0 -11 1 -23h623v23q0 16 -1 33q-16 1 -30.5 4t-33 12t-31.5 23
t-22 39t-9 58z" />
    <glyph glyph-name="enter" unicode="&#xe66f;" 
d="M384 384h-320v128h320v128l192 -192l-192 -192v128zM1024 896v-832l-384 -192v192h-384v256h64v-192h320v576l256 128h-576v-256h-64v320h768z" />
    <glyph glyph-name="shangpinshoudai" unicode="&#xe72c;" 
d="M950 -81l-73 761q-1 14 -11.5 23.5t-24.5 9.5h-129q-7 77 -64.5 130t-136 53t-136 -53t-64.5 -130h-128q-15 0 -25.5 -9.5t-11.5 -23.5l-73 -768q-2 -16 9 -28t27 -12h805h1q15 0 25.5 10.5t10.5 26.5q0 5 -1 10zM512 823q48 0 83.5 -31.5t42.5 -78.5h-252q6 47 42 78.5
t84 31.5zM216 640h95v-37q0 -15 10.5 -25.5t25.5 -10.5t26 10.5t11 25.5v37h256v-37q0 -15 10.5 -25.5t25.5 -10.5t26 10.5t11 25.5v37h95l55 -585h-703zM150 -55l7 73h710l7 -73h-724z" />
    <glyph glyph-name="gwc2" unicode="&#xe62c;" 
d="M352 14q19 0 35.5 -6.5t29 -19t19.5 -29t7 -35t-7 -35.5t-19.5 -29t-29 -19.5t-35.5 -7.5t-36 7.5t-29 19.5t-19.5 29t-7.5 35.5t7.5 35t19.5 29t29 19t36 6.5v0zM759 12q19 0 36 -6.5t29.5 -19t19.5 -29t7 -35t-7 -35.5t-19.5 -29t-29.5 -19.5t-35.5 -7.5t-35.5 7.5
t-29 19.5t-19.5 29t-7.5 35.5t7.5 35t19.5 29t29 19t35 6.5v0zM924 569q27 0 42 -7.5t21.5 -18t6 -23t-3.5 -21.5l-12 -36q-10 -26 -21 -60q-11 -30 -23 -65q-11 -32 -18 -51q-13 -39 -32 -54.5t-47 -15.5h-35h-62h-82h-92h-243l14 -88h494q47 0 47 -40q0 -20 -9.5 -34
t-36.5 -14h-47h-90h-114h-114h-95h-53q-20 0 -33 8.5t-22 23t-14 31.5q-5 16 -8 31q-1 6 -6 28q-4 20 -10 57q-11 56 -15 75q-7 37 -15 84q-19 99 -42 220h-74q-14 0 -24 7.5t-16.5 18t-9 22t-2.5 21.5q0 20 13.5 32.5t35.5 12.5h21h20h25h33q20 0 31.5 -6t18.5 -14.5
t10 -18.5q3 -11 5 -17q2 -8 4 -22q1 -13 4 -29q3 -18 5 -37h670v0zM850 600h-358l129 130q23 22 50 22.5t49 -21.5zM850 600z" />
    <glyph glyph-name="red2" unicode="&#xe620;" 
d="M441 567l-139 107q2 4 6.5 10t22 15.5t40.5 7.5h29l-7 1v0q9 45 24 66q7 9 13 15.5t8 8.5l3 1q39 6 65 -18l20 -17v0q6 4 16 10t32 16t33.5 10t19 -1.5t8.5 -2.5l2 -2q24 -29 31 -59q3 -14 4 -22.5t1 -10.5v-2q22 2 31 13l16 21q2 -5 3.5 -13.5t-0.5 -29t-13 -34.5
q-6 -8 -10.5 -15t-5 -9t-3.5 -5t-6 -5l-12 -8q-12 -8 -33 -19t-36 -18l-15 -7q-10 3 -27 6t-56.5 2.5t-64.5 -12.5v0zM842 248q-54 163 -107 214q-95 91 -184 89q-103 -1 -138 -15q-4 -1 -11.5 -3.5t-29 -14t-41 -26.5t-42.5 -43.5t-39 -63.5q-11 -24 -19.5 -43t-19.5 -45.5
t-20 -48t-18 -47.5t-16 -47t-12.5 -43.5t-8 -40.5t-2 -35t4.5 -29q1 -4 3 -10q8 -28 13 -41.5t16.5 -36t25.5 -36t38 -29.5t56 -28q86 -35 163.5 -44.5t160.5 0.5q91 11 165 61t99 127q8 26 9.5 56.5t-0.5 54.5t-9.5 54t-12.5 46t-14 40.5t-10 27.5v0z" />
    <glyph glyph-name="book" unicode="&#xe60c;" 
d="M742 -110h-512q-10 0 -17.5 7.5t-7.5 18.5t7.5 18.5t17.5 7.5h512q11 0 18.5 -7.5t7.5 -18.5t-7.5 -18.5t-18.5 -7.5zM844.5 658q-10.5 0 -18 -7.5t-7.5 -17.5v-768q0 -11 -7.5 -18.5t-17.5 -7.5h-564q-31 0 -53.5 22.5t-22.5 54.5t22.5 54.5t53.5 22.5h461
q32 0 54.5 22.5t22.5 54.5v614q0 32 -22.5 54.5t-54.5 22.5h-512q-32 0 -54.5 -22.5t-22.5 -54.5v-768q0 -53 37.5 -90.5t90.5 -37.5h564q31 0 53.5 22.5t22.5 54.5v768q0 10 -7.5 17.5t-18 7.5zM179 710h512q11 0 18.5 -7.5t7.5 -18.5v-614q0 -11 -7.5 -18.5t-18.5 -7.5
h-461q-42 0 -76 -26v666q0 11 7.5 18.5t17.5 7.5z" />
    <glyph glyph-name="yiwancheng" unicode="&#xe671;" 
d="M512 -212q-104 0 -199 40.5t-163.5 109t-109 163.5t-40.5 199t40.5 199t109 163.5t163.5 109t199 40.5t199 -40.5t163.5 -109t109 -163.5t40.5 -199t-40.5 -199t-109 -163.5t-163.5 -109t-199 -40.5v0v0zM797 515q-34 0 -58 -25l-251 -256h-44l-126 123q-12 21 -34 32v1
v0q-17 8 -35 8q-33 0 -56 -23t-23 -55.5t23 -56.5v0l253 -241h58l340 353q11 8 17 18l4 3l-1 3q11 18 11 38q0 32 -23 55t-55 23v0v0zM797 515z" />
    <glyph glyph-name="faxian1" unicode="&#xe60d;" 
d="M874 662q-98 98 -230 133t-264 0t-230 -133q-74 -74 -112 -169.5t-38 -192.5t38 -192.5t112 -169.5q98 -98 230 -133t264 0t230 133q74 74 112 169.5t38 192.5t-38 192.5t-112 169.5zM185 -27q-67 66 -101.5 152.5t-34.5 174.5t34.5 174.5t101 153t153 101t174.5 34.5
t174.5 -34.5t152.5 -101.5q89 -89 120.5 -208t0 -238t-120.5 -208t-208 -121t-238 0t-208 121zM437 379l-187 -345l339 193l194 339zM517 266q-14 0 -24 10t-10 24t10 24t24 10t23.5 -10t9.5 -24t-9.5 -24t-23.5 -10z" />
    <glyph glyph-name="che" unicode="&#xe606;" 
d="M517 -200q-102 0 -194 40q-90 37 -159 106t-107 159q-39 93 -39 194.5t39 193.5q38 90 107 159t159 107q92 39 193.5 39t194.5 -39q90 -38 159 -107t107 -159q39 -92 39 -193.5t-39 -194.5q-38 -90 -107 -159t-159 -106q-93 -40 -194 -40v0zM517 778q-97 0 -185.5 -38
t-153 -102.5t-102 -153t-37.5 -185.5t37.5 -185.5t102 -152.5t153 -102t185.5 -38t185.5 38t152.5 102t102 152.5t38 185.5t-38 185.5t-102 153t-152.5 102.5t-185.5 38v0zM209 197h309v109h-233v46q43 77 78 149h-130v47h153q25 51 46 100l48 -14q-21 -45 -41 -86h357v-47
h-380q-41 -86 -76 -149h178v122h49v-122h184v-46h-184v-109h254v-47h-254v-133h-49v133h-309v47z" />
    <glyph glyph-name="shizhong" unicode="&#xe706;" 
d="M510.5 730q-93.5 0 -173 -46t-125.5 -125.5t-46 -173t46 -173t125.5 -125.5t173 -46t173 46t126 125.5t46.5 173t-46.5 173t-126 125.5t-173 46zM776 362q0 -8 -5.5 -14t-13.5 -6h-250v-19q0 -8 -5.5 -13.5t-13.5 -5.5t-13.5 5.5t-5.5 13.5v19h-19q-8 0 -13.5 6t-5.5 14
t5.5 13.5t13.5 5.5h19v249q0 8 5.5 13.5t13.5 5.5t13.5 -5.5t5.5 -13.5v-249h250q8 0 13.5 -5.5t5.5 -13.5zM511 833q-91 0 -174 -35.5t-142.5 -95.5t-95 -142.5t-35.5 -173.5t35.5 -174t95 -142.5t142.5 -95t174 -35.5t173.5 35.5t142.5 95t95.5 142.5t35.5 174
t-35.5 173.5t-95.5 142.5t-142.5 95.5t-173.5 35.5zM805 91q-57 -57 -132 -89q-77 -33 -162 -33t-162 33q-75 32 -133 89q-57 58 -89 133q-33 77 -33 161.5t33 162.5q32 75 89 132q58 58 133 89q77 33 162 33q84 0 162 -33q75 -31 132 -89q58 -58 89 -132q33 -78 33 -162.5
t-33 -161.5q-31 -75 -89 -133z" />
    <glyph glyph-name="xue" unicode="&#xe622;" 
d="M903 835h-784q-24 0 -40.5 -16.5t-16.5 -39.5v-785q0 -23 16.5 -39.5t40.5 -16.5h784q24 0 40 16.5t16 39.5v785q0 23 -16 39.5t-40 16.5zM485 719q35 -53 64 -111l-43 -22q-30 63 -64 111zM323 706q39 -53 69 -106l-42 -21q-35 61 -71 105zM227 575h385q45 64 77 141
l49 -18q-35 -72 -73 -123h130v-150h-48v104h-473v-104h-47v150zM800 266h-256v-114q0 -54 -57 -54h-86l-11 44q48 -1 80 -1q25 0 25 28v97h-273v46h273v56q84 37 128 61h-293v43h363v-43q-69 -44 -149 -83v-34h256v-46z" />
    <glyph glyph-name="xihuanxuanzhong" unicode="&#xe611;" 
d="M871 487q0 -46 -20.5 -96.5t-53.5 -95t-73 -87.5t-80.5 -76.5t-73.5 -59.5t-53.5 -40l-20.5 -14q-8 5 -21.5 14t-52.5 39t-74.5 60.5t-79 76t-74.5 88.5t-52.5 94t-21.5 97q0 55 18.5 99t48 70.5t68.5 37.5t80 4t83.5 -34.5t77.5 -73.5q34 46 76.5 73.5t83.5 34.5t80 -4
t69 -37.5t48 -70.5t18 -99z" />
    <glyph glyph-name="pin" unicode="&#xe612;" 
d="M958 385q0 -91 -35.5 -173.5t-95.5 -142.5t-142.5 -95.5t-173.5 -35.5t-173.5 35.5t-142.5 95.5t-95.5 142.5t-35.5 173.5t35.5 173.5t95.5 142.5t142.5 95.5t173.5 35.5t173.5 -35.5t142.5 -95.5t95.5 -142.5t35.5 -173.5zM330 697q-24 -3 -24 -22v-93h-53
q-36 -24 0 -51h53v-146q-29 -14 -65 -29q-22 -9 -19 -31q9 -24 31 -16.5t45 19.5q5 2 8 4v-148q2 -27 -44 -17q-21 5 -26 -15q0 -24 19 -31q101 -16 99 63v172q2 3 7 5q28 17 38 24q17 14 7 31q-12 17 -31 7q-14 -9 -21 -14v122h38q36 27 0 51h-38v93q0 19 -24 22z
M409 358.5q0 -21.5 19 -21.5h60q-10 -103 -72 -182q-15 -22 5 -36q21 -10 38 12q62 86 77 206h129v-201q0 -24 24 -27q24 3 24 27v201h75q16 0 19 22q-3 21 -19 21h-75v166h63q33 21 0 43h-89q12 12 29 48q7 12 9 17q5 19 -12 29q-19 9 -29 -8q-21 -45 -50 -84h-79
q5 10 -5 27q-20 34 -33 55q-15 19 -34 10q-19 -15 -7 -34q19 -26 38 -58h-77q-36 -21 0 -45h56v-127v-39h-65q-19 0 -19 -21.5zM541 419v127h124v-166h-124v39z" />
    <glyph glyph-name="5" unicode="&#xe62d;" 
d="M512 876q-100 0 -191 -39t-157 -105t-105 -157t-39 -191t39 -191t105 -157t157 -105t191 -39t191 39t157 105t105 157t39 191t-39 191t-105 157t-157 105t-191 39zM399 607.5q47 46.5 113 46.5t113 -46q47 -47 47 -113.5t-47 -113t-113 -46.5t-113 47t-47 113t47 112.5z
M512 -40q-88 0 -167 34t-138 95q27 76 91.5 126t141.5 50h143q77 0 142 -50t92 -126q-59 -61 -138 -95t-167 -34z" />
    <glyph glyph-name="qianjin" unicode="&#xe663;" 
d="M314 -128l453 454l57 56l-510 514l-114 -113l397 -400l-397 -397z" />
    <glyph glyph-name="lishiliulan" unicode="&#xe693;" 
d="M872 507h41q17 0 29 12t12 29v166q0 17 -12 29t-29 12t-29 -12t-12 -29v-75q-61 86 -155.5 135.5t-203.5 49.5q-90 0 -171.5 -35t-140.5 -94t-94 -140.5t-35 -171.5q0 -17 12 -29t29 -12t29.5 12t12.5 29q0 97 48 179.5t130.5 130.5t179.5 48q89 0 165.5 -40.5
t126.5 -110.5h-71q-21 0 -33 -17q-80 77 -191 77q-114 0 -194.5 -80.5t-80.5 -194.5q0 -61 26 -116h-148q-17 0 -29 -12t-12 -30v-165q0 -17 12 -29t29 -12t29.5 12t12.5 29v75q61 -86 155 -135.5t203 -49.5q90 0 171.5 35t140.5 94t94 140.5t35 171.5q0 17 -12 29t-29 12
t-29 -12t-12 -29q0 -97 -48 -180t-130.5 -131t-180.5 -48q-89 0 -166 41t-126 111h72q11 0 21 6q81 -82 196 -82q114 0 194.5 80.5t80.5 194.5q0 70 -34 132h98h23zM625 350h-53h-35h-26q-11 0 -19 7.5t-8 18.5v159q0 11 8 18.5t19 7.5t18.5 -7.5t7.5 -18.5v-132h35h53
q11 0 19 -8t8 -19t-8 -18.5t-19 -7.5z" />
    <glyph glyph-name="zhanghao-copy" unicode="&#xe602;" 
d="M591 -62l-4 45q-3 27 -24.5 45t-50.5 18q-28 0 -48.5 -17.5t-26.5 -45.5l-7 -41l-42 11q-103 27 -195 112l-30 30l34 27q22 16 27.5 44t-8.5 53q-14 23 -41.5 32.5t-52.5 1.5l-41 -15l-4 34q-15 50 -15 112.5t15 111.5l11 42l42 -15q25 -11 52 -1.5t41 35t9 53t-28 44.5
l-37 22l30 30q85 80 195 113l41 11l4 -45q3 -27 24.5 -45t50.5 -18q28 0 48.5 17.5t26.5 45.5l7 41l42 -11q103 -27 195 -112l30 -30l-34 -27q-22 -16 -27.5 -44t8.5 -53q25 -37 64 -37v0q19 0 26 3l42 15l7 -34q15 -74 15 -112q0 -62 -15 -112l-11 -42l-42 15
q-25 11 -52 1.5t-41 -35t-9 -53t28 -44.5l33 -26l-30 -30q-77 -77 -195 -113zM512 122q45 0 81.5 -23.5t53.5 -63.5q55 25 97 57q-25 33 -27 77t20 84q23 36 61.5 57t81.5 18q7 18 7 56t-4 56h-15q-39 0 -75 20.5t-56 54.5q-22 40 -20 84t27 77q-57 43 -97 57
q-17 -40 -53.5 -63.5t-81.5 -23.5t-81.5 23.5t-53.5 63.5q-44 -13 -101 -57q25 -33 27.5 -77t-20.5 -84q-22 -36 -61 -57t-81 -18q-4 -18 -4 -56t4 -56q43 3 81.5 -17t60.5 -58q23 -40 20.5 -84t-27.5 -77q57 -43 97 -57q20 40 57 63.5t82 23.5v0zM512 234q-62 0 -106 44
t-44 106t44 106t106 44t106 -44t44 -106t-44 -106t-106 -44v0zM512 459q-31 0 -53 -22t-22 -53t22 -53t53 -22t53 22t22 53t-22 53t-53 22v0z" />
    <glyph glyph-name="jianzhi01" unicode="&#xe64c;" 
d="M511.5 -120q-102.5 0 -195.5 39q-91 39 -160.5 108.5t-108.5 159.5q-39 94 -39 196.5t39 196.5q39 90 108.5 160t160.5 108q93 40 195.5 40t196.5 -40q90 -38 160 -108t108 -160q40 -94 40 -196.5t-40 -196.5q-38 -90 -108 -159.5t-160 -108.5q-94 -39 -196.5 -39z
M512 867q-98 0 -188 -38t-154.5 -103t-103 -154.5t-38.5 -188t38.5 -188t103 -154t154.5 -103t188 -38.5t187.5 38.5t154.5 103t103 154t38 188t-38 188t-103 154.5t-154.5 103t-187.5 38zM513 253q-12 -14 -21 -28q-79 33 -127 92v-112h-29v134h-67v-134h-28v108
q-48 -56 -108 -95q-8 13 -19 25q65 34 119 96h-85v25h93v38h-121v26h121v38h-93v25h93v38h-121v25h115q-14 20 -25 31l25 16q16 -17 33 -37l-15 -10h92q18 24 33 47l30 -17q-13 -15 -27 -30h129v-25h-145v-38h96v-63h49v-26h-49v-75h-29v12h-57q55 -61 138 -86zM269 491h67
v38h-67v-38zM269 428h67v38h-67v-38zM269 364h67v38h-67v-38zM432 466h-67v-38h67v38zM432 364v38h-67v-38h67zM532 573h171v-28h-27v-218q12 3 29 7v-31q-15 -3 -29 -7v-87h-30v81q-56 -13 -113 -27l-6 30l27 6v246h-22v28zM583 487h63v58h-63v-58zM583 401h63v58h-63v-58z
M646 320v53h-63v-68q32 7 63 15zM759 340l29 -14q-36 -67 -70 -116q-14 10 -27 16q39 54 68 114zM720 570h172v-212h-30v23h-112v-23h-30v212zM862 541h-112v-131h112v131zM852 342q34 -51 69 -115l-28 -18q-32 60 -69 118z" />
    <glyph glyph-name="rili1" unicode="&#xe63c;" 
d="M328 588q17 0 29 12t12 28v184q0 17 -12 29t-29 12t-29 -12t-12 -29v-184q0 -16 12 -28t29 -12zM694.5 588q16.5 0 29 12t12.5 28v184q0 17 -12.5 29t-29 12t-28.5 -12t-12 -29v-184q0 -16 12 -28t28.5 -12zM409 751h205v-61h-205v61zM853 751h-76v-61h79q17 0 30 -12.5
t13 -30.5v-141h-774v141q0 18 12.5 30.5t29.5 12.5h80v61h-76q-44 0 -75.5 -31.5t-31.5 -75.5v-622q0 -44 30.5 -75.5t74.5 -31.5h684q44 0 75.5 31.5t31.5 75.5v622q0 44 -31.5 75.5t-75.5 31.5zM285.5 37q-25.5 0 -43.5 18t-18 43.5t18 43.5t43.5 18t43.5 -18t18 -43.5
t-18 -43.5t-43.5 -18zM286.5 262q-25.5 0 -43 18t-17.5 43.5t17.5 43.5t43 18t43.5 -18t18 -43.5t-18 -43.5t-43.5 -18zM511.5 37q-25.5 0 -43.5 18t-18 43.5t18 43.5t43.5 18t43 -18t17.5 -43.5t-17.5 -43.5t-43 -18zM511.5 262q-25.5 0 -43.5 18t-18 43.5t18 43.5t43.5 18
t43 -18t17.5 -43.5t-17.5 -43.5t-43 -18zM735.5 262q-25.5 0 -43.5 18t-18 43.5t18 43.5t43.5 18t43 -18t17.5 -43.5t-17.5 -43.5t-43 -18z" />
    <glyph glyph-name="xuexiziyuan" unicode="&#xe62b;" 
d="M512 -122q103 0 197.5 40t162.5 108.5t108 162.5t40 197.5t-40 197.5t-108 162t-162.5 108.5t-197.5 40.5t-197.5 -40.5t-162.5 -108.5t-108 -162t-40 -197.5t40 -197.5t108 -162.5t162.5 -108.5t197.5 -40v0v0zM777 193q4 -12 9 -20q6 -10 14 -18h-452q-10 0 -18.5 5.5
t-14.5 14.5t-9.5 20.5t-3.5 25.5t4.5 24.5t11 18.5t14.5 12t15 4h453q-8 -6 -14 -14q-5 -7 -9.5 -18t-4.5 -28q0 -15 5 -27v0v0v0zM800 322h-225h-84q-40 0 -75 1h-54h-24q-14 0 -27 -8t-23.5 -22t-17 -33t-6.5 -39q0 -25 6.5 -45t18 -33.5t24.5 -21t27 -7.5h446q5 0 9.5 -3
t4.5 -10q0 -11 -14 -11h-479q-22 0 -37 9.5t-24.5 25.5t-13.5 38t-4 48v379q0 50 27 72.5t77 22.5h22h44h61l59 1v0v-28h100v28v0h39h46h23q18 0 32 -7.5t23 -21t14 -31.5t5 -39v-265v0v0v0zM568 504l50 -71v253v0v-28h-100v-225l50 71v0v0zM518 686v0v-28v0v28v0v0v0z" />
    <glyph glyph-name="jinriketang" unicode="&#xe62f;" 
d="M968 777h-913q-14 0 -24 -10t-10 -24v-594q0 -14 10 -24t24 -10h212l-18 68h-160v526h845v-526h-152q60 -25 111 -68h75q14 0 24 10t10 24v594q0 14 -10 24t-24 10zM743 126q-6 2 -11 4q-5 1 -7 2l-20 6q-2 1 -5 1h-5q-3 0 -5 -1q-29 -16 -69.5 -16t-69.5 16q-2 1 -5 1
h-4h-2q-10 -3 -22 -6l-9 -3q-4 -2 -9 -4q-13 -4 -26 -11v0v0q-19 -8 -32 -16l-11 16v0l-10 17l-81 130q-10 14 -26 7t-11 -24l16 -62v0l19 -68v0l28 -105q1 -2 2 -5v-5q0 -4 3.5 -7t7.5 -3h483q4 0 7.5 3t3.5 7v38q0 4 -4 8q-55 53 -126 80zM501 301q0 -8 6 -14.5t14 -6.5v1
q3 -43 32 -76t67.5 -33t67.5 33t32 76v-1q8 0 14 6.5t6 14.5q0 14 -12 19q6 19 6 39q0 50 -33 85.5t-80.5 35.5t-80.5 -35.5t-33 -85.5q0 -20 6 -39q-12 -5 -12 -19z" />
    <glyph glyph-name="shouye" unicode="&#xe631;" 
d="M949 377l-440 411l-441 -410q-6 -6 -6.5 -15t5.5 -15.5t15 -6.5t15 6l412 383l411 -384q6 -6 14 -6q10 0 16 7q6 6 6 15t-7 15v0zM815 368q-9 0 -15.5 -6t-6.5 -15v-327h-170v227h-228v-227h-171v327q0 9 -6 15t-15 6t-15.5 -6t-6.5 -15v-370h257v228h142v-228h256v370
q0 9 -6 15t-15 6v0zM665 674h128v-114q0 -9 6.5 -15t15.5 -6t15 6t6 15v157h-171q-9 0 -15 -6.5t-6 -15.5t6 -15t15 -6v0zM665 674z" />
    <glyph glyph-name="zidian3" unicode="&#xe67a;" 
d="M469 445v451h-220v-453l116 97zM512 896v-50v-497l-148 135l-158 -133v540v5h-35q-77 0 -124 -47t-47 -124v-543v-77q47 44 128 44h341h555v747h-512zM1 2v-1v0v0q1 -16 5.5 -30.5t16.5 -33.5t30 -32.5t49.5 -23t71.5 -9.5h850v235h-896q-60 0 -93.5 -28t-33.5 -77z" />
    <glyph glyph-name="wenjiandai" unicode="&#xe694;" 
d="M939 715h-555v21q0 35 -25 60t-60 25h-214q-35 0 -60 -25t-25 -60v-107v-149v-448q0 -35 25 -60t60 -25h854q35 0 60 25t25 60v597q0 36 -25 61t-60 25zM43 736q0 18 12.5 30.5t29.5 12.5h214q17 0 29.5 -12.5t12.5 -30.5v-21v-43h43h555q17 0 29.5 -12.5t12.5 -30.5v-42
h-938v42v107zM939 -11h-854q-17 0 -29.5 12.5t-12.5 30.5v448v64h938v-512q0 -18 -12.5 -30.5t-29.5 -12.5z" />
    <glyph glyph-name="kefuzhongxin" unicode="&#xe61a;" 
d="M512 857q-96 0 -184 -37.5t-151 -100.5t-100.5 -151t-37.5 -184t37.5 -184t100.5 -151t151 -100.5t184 -37.5t184 37.5t151 100.5t100.5 151t37.5 184t-37.5 184t-100.5 151t-151 100.5t-184 37.5zM681 225q0 -54 -38.5 -92.5t-92.5 -38.5h-63q-41 0 -74.5 23.5
t-47.5 60.5q36 -19 77 -23q4 -15 20 -15h46q9 0 15 6.5t6 15.5v1q0 8 -6 14.5t-15 6.5h-46q-13 0 -19 -11q-52 3 -85 31q-2 10 -2 21v183q0 54 38.5 92.5t92.5 38.5h63q54 0 92.5 -38.5t38.5 -92.5v-183v0zM818 245h-84l-4 191q0 6 -1.5 15.5t-12 35.5t-27.5 48.5t-53.5 46
t-85.5 35.5q-3 1 -10 1.5t-27 0.5t-39.5 -4t-46 -15t-49.5 -28t-46 -47.5t-39 -70.5l-2 -209h-85v192h43q0 7 1.5 14.5t8.5 28.5t17 39.5t29 43.5t43 44.5t61 38t81 28.5q4 -1 18.5 0t38 -4.5t50.5 -12.5t55 -24.5t52 -38.5t42 -56t25 -77v-14l47 -3v-199v0z" />
    <glyph glyph-name="wodekoudai" unicode="&#xe624;" 
d="M869 767h-716q-33 0 -56 -23t-23 -56v-276h1q5 -114 64 -209t158 -150t214 -55t214 55t158 150t64 209h1v276q0 33 -23 56t-56 23v0zM912 409q-4 -103 -58.5 -189.5t-145.5 -136.5t-197 -50t-197 50t-145.5 136.5t-58.5 189.5h-1v288q0 35 35 35h734q10 0 22 -8.5
t13 -26.5v-288h-1v0zM912 409zM800 587q-5 5 -12 5t-12 -5l-304 -303l-166 165q-5 5 -12.5 5t-12.5 -5t-5 -12.5t5 -12.5l177 -176q7 -7 17 -5q7 0 11 5l314 314q6 5 6 12.5t-6 12.5v0zM800 587z" />
    <glyph glyph-name="xiaomishu" unicode="&#xe710;" 
d="M263 155q134 -61 249 -61q125 0 252 77q18 11 48 -15.5t54.5 -71.5t29.5 -83h-765q12 35 29 65t32 47.5t30.5 30t25 13.5t15.5 -2v0zM764 248q-106 -97 -252 -97t-252 97q-91 -47 -143.5 -126t-52.5 -184h898q0 105 -52.5 184.5t-145.5 125.5v0zM220 379v229q-5 0 -9 -1
q37 81 116 120.5t185 39.5t185 -39.5t116 -120.5q-5 1 -9 1v-229q51 0 101.5 34.5t50.5 79.5q0 32 -16.5 58.5t-43.5 41.5q-37 105 -149 174t-235 69q-81 0 -160.5 -31t-141 -87t-86.5 -125q-27 -15 -43.5 -41.5t-16.5 -58.5q0 -45 52 -79.5t104 -34.5v0v0zM512 285
q-80 0 -136.5 55.5t-56.5 133.5t56.5 133.5t136.5 55.5t136 -55.5t56 -133.5t-56 -133.5t-136 -55.5v0zM512 722q-105 0 -179 -72.5t-74 -175t74 -175.5t179 -73t179 73t74 175.5t-74 175t-179 72.5v0zM512 722z" />
    <glyph glyph-name="farenweituoshu" unicode="&#xe63e;" horiz-adv-x="1025" 
d="M675 84l-3 3h-580q-17 0 -29 11.5t-12 28.5v537q0 17 12 30t29 13h827q17 0 29 -11.5t12 -29.5v-321l3 -3q21 -13 35 -31l11 -12v378q0 32 -23.5 55.5t-56.5 23.5h-849q-33 0 -56.5 -23.5t-23.5 -55.5v-562q0 -33 23.5 -56t56.5 -23h628l-7 10q-11 12 -26 38v0v0zM675 84
zM855 339q-71 0 -120.5 -48.5t-49.5 -119.5q0 -69 50 -119t120 -50q71 0 120 49t49 120q0 70 -50 119t-119 49v0v0zM852 69q-6 -6 -15.5 -6t-17.5 6l-72 71q-6 6 -6 15.5t6 15.5t16 6t17 -6l57 -56l110 107q6 6 16 6t18 -6q5 -6 5 -15.5t-5 -15.5l-129 -122v0v0zM852 69z
M187 509q0 -24 9 -46.5t26 -39.5t39.5 -26t46.5 -9t46.5 9t39.5 26t26 39.5t9 46.5t-9 46t-26 39t-39.5 26.5t-46.5 9.5t-46.5 -9.5t-39.5 -26.5t-26 -39t-9 -46v0zM187 509zM500 259q-3 9 -8 18q-14 28 -34 48q-59 61 -149 61q-59 0 -108.5 -30.5t-75.5 -81.5q-2 -3 -6 -18
q-8 -24 0 -44q8 -18 26 -29q18 -9 45 -10v0h119h120v0q28 1 44 10q20 11 26 26q5 12 5 24q1 13 -4 26v0zM500 259zM585 459h295v-51h-295v51v0v0zM585 459zM585 347h87v-51h-87v51v0v0zM585 347zM585 569h295v-51h-295v51v0v0zM585 569z" />
    <glyph glyph-name="faxian2" unicode="&#xe61d;" 
d="M512 873q-100 0 -190.5 -38.5t-156.5 -104t-104.5 -156.5t-38.5 -190.5t38.5 -190.5t104.5 -156.5t156.5 -104.5t190.5 -39t190.5 39t156 104.5t104.5 156.5t39 190.5t-39 190.5t-104.5 156.5t-156 104t-190.5 38.5zM560 346l-324 -215l217 315l319 205zM506 393z
M470 392.5q0 15.5 10.5 26.5t26 11t26 -11t10.5 -26.5t-10.5 -26t-26 -10.5t-26 10.5t-10.5 26z" />
    <glyph glyph-name="gou" unicode="&#xe64d;" 
d="M512 892q-104 0 -199 -40t-163.5 -108.5t-109 -163t-40.5 -198.5t40.5 -198.5t109 -162.5t163.5 -108.5t199 -40.5t199 40.5t163.5 108.5t109 162.5t40.5 198.5t-40.5 198.5t-109 163t-163.5 108.5t-199 40zM451 219l-144 143l36 36l108 -108l271 271l36 -36z" />
    <glyph glyph-name="che1" unicode="&#xe618;" 
d="M512 831q-91 0 -174 -35t-143 -95t-95.5 -143t-35.5 -174t35.5 -174t95.5 -143t143 -95.5t174 -35.5t174 35.5t143 95.5t95.5 143t35.5 174t-35.5 174t-95.5 143t-143 95t-174 35v0v0v0v0zM512 -25q-111 0 -205.5 54.5t-149 149t-54.5 205.5t54.5 205t149 149t205.5 55
t205 -55t149 -149t55 -205t-55 -205.5t-149 -149t-205 -54.5v0v0v0v0zM512 -25zM734 248h-188v-114q-3 -7 -9.5 -10.5t-13.5 -3.5q-15 0 -18 14v114h-215q-7 0 -11 6t-4 14q0 9 3.5 14.5t11.5 5.5h215v74h-165q-7 4 -9.5 8.5t-2.5 11.5q0 6 3 12q0 2 3 5q13 15 43 74
q9 20 27 57h-107q-12 9 -12 20q0 9 8 17q1 2 4 4h121l20 67q10 12 23 12q8 0 13.5 -5.5t3.5 -15.5l-16 -58h255q9 1 13.5 -4.5t4.5 -14.5q0 -8 -3.5 -14t-10.5 -8h-273l-59 -124l3 -3h113v74q1 7 6 10.5t12 3.5q18 0 23 -14v-74h144q9 0 13.5 -5.5t4.5 -13.5q0 -17 -14 -22
h-148v-74h188q7 0 11 -6t4 -14q0 -9 -3.5 -14.5t-11.5 -5.5z" />
    <glyph glyph-name="zuo" unicode="&#xe628;" 
d="M853 895h-682q-70 0 -120 -50t-50 -120v-682q0 -70 50 -120t120 -50h682q70 0 120 50t50 120v682q0 70 -50 120t-120 50zM293 559v-575h-77v419q-55 -91 -111 -131l-36 74q47 57 93 145.5t68.5 146t41.5 113.5q1 5 5 16t6 17l80 -20q-2 -6 -5 -17q-19 -69 -44 -132
q-11 -31 -21 -56zM919 583h-285v-137h238v-70h-238v-138h262v-73h-262v-181h-77v599h-50q-24 -43 -52 -89q-2 -4 -7 -12t-6 -10l-52 -80l-37 37l-20 20q107 138 167 335l81 -16q-7 -45 -39 -114h377v-71z" />
    <glyph glyph-name="daishouhuo" unicode="&#xe815;" 
d="M816 270q75 0 128 -53t53 -128t-53 -128t-128 -53t-128 53t-53 128t53 128t128 53v0zM805 240q-14 0 -23.5 -10t-9.5 -24v-130q0 -14 9.5 -23.5t23.5 -9.5v0h4q3 -1 7 -1h89q13 0 23 9.5t10 23.5v0q0 14 -10 23.5t-23 9.5h-67v98q0 14 -9.5 24t-23.5 10v0v0v0zM434 182
l-321 227v-146l321 -228v147v0zM513 236l205 147l-426 303l-205 -148l426 -302v0zM493 -69l-421 299v271l421 -299v-271v0zM309 857l194 -4l404 -286l-194 4l-404 286v0zM990 540q0 7 -5 13q-2 6 -6 9l-459 325q-5 4 -11 4l-260 5q-14 0 -18.5 -13t7.5 -21l119 -84l-57 -42
q-3 0 -6 -2l-250 -181q-8 -5 -8 -15v0l-1 -1v-317l8 -15l458 -325h1q2 -2 3 -2q4 -2 8 -2q6 0 11 4l113 79q-11 15 -20 33l-85 -61v271l421 299v-239q10 -8 19 -17q10 -10 19 -21v313q0 1 -0.5 1.5t-0.5 1.5v0z" />
    <glyph glyph-name="tubiao17" unicode="&#xe659;" 
d="M553 343h-91l-28 -51h-48l130 231h53l37 -231h-45zM548 382l-14 92l-55 -92h69zM698 412l-44 4q8 22 26.5 34.5t49.5 12.5q33 0 48.5 -13t15.5 -32q0 -7 -1.5 -15.5t-9.5 -44.5q-7 -30 -7 -42q0 -11 4 -24h-44q-3 9 -3 19q-10 -11 -23 -17t-26 -6q-21 0 -34.5 14
t-13.5 35q0 24 15 38t53 17q32 3 43 7q3 9 3 15q0 7 -6 12t-17 5q-12 0 -19 -5t-10 -14zM741 370q-4 -1 -11 -2q-33 -4 -44 -12q-7 -6 -7 -15q0 -8 5.5 -13.5t14.5 -5.5q11 0 20 5t13.5 13t7.5 24zM790 736h-556q-30 0 -51.5 -21.5t-21.5 -51.5v-557q0 -30 21.5 -51.5
t51.5 -21.5h556q30 0 51.5 21.5t21.5 51.5v557q0 30 -21.5 51.5t-51.5 21.5zM834 106q0 -18 -13 -30.5t-31 -12.5h-424v643h424q18 0 31 -12.5t13 -30.5v-557z" />
    <glyph glyph-name="changguizidian" unicode="&#xe625;" 
d="M945 643q-10 15 -32 23q1 -19 -2 -31l-162 -531q-4 -14 -18.5 -22.5t-30.5 -8.5h-497q-64 0 -78 38q-5 14 1 23q5 8 20 8h468q51 0 69 18q20 19 39 83l148 488q12 40 -10 70t-61 30h-410q-8 0 -28 -4l1 1q-24 7 -41 -1.5t-24 -22t-15.5 -34.5t-14.5 -30q-3 -3 -9 -10.5
t-10 -13.5t-5 -9.5t1 -14t2 -13.5q-3 -20 -16 -52q-13 -33 -22 -45l-12 -13q-10 -10 -12 -16q-3 -3 0 -15q2 -13 1 -17q-3 -21 -13 -49q-11 -29 -23 -49q-2 -4 -9 -13q-8 -9 -9 -15q-1 -3 0 -15.5t0 -15.5q-5 -22 -16 -50q-13 -29 -25 -49q-2 -4 -8 -12t-9.5 -14t-4.5 -10
q0 -2 2 -10.5t2 -11.5l-3 -20q0 -4 -0.5 -7.5t-0.5 -5v-2.5q-12 -32 1 -68q15 -42 53 -71q39 -29 80 -29h498q34 0 65 24q31 23 42 57l148 488q12 40 -10 70zM339 538q2 7 8.5 12.5t13.5 5.5h328q7 0 10.5 -5.5t1.5 -12.5l-12 -34q-2 -7 -8.5 -12t-13.5 -5h-328
q-7 0 -10.5 5t-1.5 12zM383 676q3 7 9.5 12.5t13.5 5.5h327q8 0 11.5 -5.5t0.5 -12.5l-11 -34q-2 -7 -9 -12t-14 -5h-327q-8 0 -11 5t-1 12z" />
    <glyph glyph-name="zidian4" unicode="&#xe75d;" 
d="M487 658h-81v-341h81q89 0 131 41q40 42 40 130q0 90 -40 130q-41 40 -131 40v0zM779 835h-534q-44 0 -76 -32t-32 -77v-689q0 -45 32 -76.5t76 -31.5h534q31 0 57.5 16.5t39.5 43.5h-623q-17 0 -29 12t-12 29v51q0 17 12 29t29 12h422h2h63q61 0 104 43t43 104v457
q0 45 -31.5 77t-76.5 32v0zM678 315q-60 -64 -176 -64h-174v473h174q116 0 176 -63q57 -60 57 -173q0 -112 -57 -173v0z" />
    <glyph glyph-name="ku" unicode="&#xe608;" 
d="M343 786h444v87q0 9 -6.5 16t-16.5 7h-593q-45 0 -77.5 -32.5t-32.5 -77.5l1 -2q-1 -562 0 -637q0 -1 -0.5 -2.5l-0.5 -1.5q0 -44 30 -75.5t73 -34.5h4h19v45h-16q-26 0 -44.5 18t-19.5 44v0.5v1.5v4q2 26 20.5 43.5t43.5 17.5h16v112v5v462q0 9 6.5 16t16 7t16 -7
t6.5 -16v-47q46 47 111 47zM941.5 5q-9.5 0 -16 -6.5t-6.5 -16.5v-63h-571q-26 0 -44.5 18t-19.5 44v1v1v5q2 25 20.5 42.5t43.5 17.5h588q2 0 5 1h1q9 0 15.5 6.5t6.5 15.5v643q0 9 -6.5 16t-15.5 7h-594q-45 0 -77 -32.5t-32 -77.5v-2q-1 -569 0 -637q0 -1 -0.5 -2.5
l-0.5 -1.5q0 -44 30 -75.5t73 -34.5h4h597q9 0 15.5 6.5t6.5 16.5v85q0 10 -6.5 16.5t-16 6.5zM613 606q4 20 18 32q8 6 10 -2q-2 -10 20 -24q14 -8 18 -26q2 -14 -4 -18h-6q-38 4 -48 10t-8 28zM459 328q14 20 32 64q16 36 26 76q4 16 6 48q2 10 2 16t10 6q18 -4 24 -2
q6 0 16 2q26 2 32 2q20 0 88 18q32 8 44 10q9 4 11 0q16 -20 16 -40q-2 -10 -12 -12q-63 8 -79 -4q-6 -2 -22 -44q17 2 56 10q6 2 8 2q22 2 27 -6q4 -12 0 -20q-5 0 -17 -8q-16 -8 -54 -18q-19 -4 -26 -6q-26 -8 -30 -36q4 2 12 2q16 -2 20 0q0 4 2 14q0 10 2 14q8 4 24 0
q12 -4 10 -8v-4q-2 -6 -2 -8q4 0 20 2t22 2q8 0 8 -8q0 -2 2 -8q0 -6 2 -8q-12 -10 -34 -14q-2 0 -22 -10v-18q71 -2 105 10q10 2 12 -4q8 -20 16 -34q4 -18 -10 -20q-24 8 -60 12q-36 2 -65 -2q-2 -37 -2 -75q2 -36 6 -48q6 -6 -30 -6q-4 4 -2 10q2 2 2 10q-4 31 -8 105
q-4 8 -24 2q-28 -8 -54 -10q-28 -2 -48 -10q-2 2 -4 16q-2 10 0 10q12 2 40 6q16 4 20 4q32 12 72 18v18q-28 6 -72 -12q-2 -4 -6 2q-14 28 -12 30q2 6 14 14q8 8 18 32q-16 -4 -22 -2q-8 30 -6 40q0 6 6 6h16q16 -2 26 0q0 4 2 10q6 24 12 34q-2 8 -52 6h-4q-24 -4 -22 -32
q-2 -34 -14 -56q-2 -2 -10 -18q-8 -18 -14 -26q-24 -42 -18 -60q4 -14 0 -16q-16 -15 -42 -38q-6 -6 -10 -7q-16 -9 -42 -10q32 55 62 85z" />
    <glyph glyph-name="yan" unicode="&#xe614;" 
d="M344 776h441v87q0 9 -6.5 15.5t-16.5 6.5h-588q-45 0 -77 -31.5t-32 -76.5v-3q-1 -557 0 -632v-1.5v-2.5q0 -43 29.5 -74t72.5 -34h3h20v45h-16q-26 0 -44.5 17.5t-19.5 43.5v0.5v1.5v4q2 25 20.5 42.5t43.5 17.5h16v111q-1 3 -1 5v459q0 9 6.5 15.5t16 6.5t16 -6.5
t6.5 -15.5v-47q46 46 110 46zM719 454q5 2 5 43q-2 9 -23 9q-11 0 -18 -16q-7 -25 0 -41zM500 344q7 7 12 28q2 13 -3 18q-11 9 -27 -5q-7 -9 -7 -34q2 -14 25 -7zM938 2q-9 0 -15.5 -6.5t-6.5 -16.5v-62h-566q-26 0 -44.5 18t-19.5 43v1.5v0.5v5q1 25 19.5 42.5t44.5 17.5
h583h5v0q9 0 16 6.5t7 16.5v637q0 10 -7 16.5t-16 6.5h-588q-45 0 -77 -32t-32 -77v-2q-1 -565 0 -632v-2v-2q0 -43 29.5 -74.5t72.5 -34.5h3h592q9 0 16 6.5t7 16.5v84q0 10 -7 16.5t-16 6.5zM372 360q35 23 58 57q25 39 34 66q-14 0 -14 3q0 9 -5 25q-4 13 -4 23
q4 16 25 18q16 -7 46 -5h2q34 12 73 7q9 0 9 -9q0 -14 -7 -23q-2 -4 -16 -9q-7 -2 -9 -4q-13 -10 -27 -26q-2 -2 -9 -11q-44 -48 -39 -50q50 7 73 -12q2 -2 4 -2q5 -2 5 16l2 7q12 -2 35 2q16 3 25 3q7 2 9 20q0 32 -5 48q-2 2 -7 2q-6 3 -9 7q-2 7 -4 25q-3 21 0 23
q4 2 11 -2q7 -2 9 -2q32 -3 121 16q32 6 35 6q13 -4 6 -29q0 -3 -6 -9q-12 -5 -14 -12q-5 -11 -7 -36q-5 -32 -2 -37q11 0 36 5q23 2 25 2q14 -7 21 -43q-2 -12 -12 -16q-2 0 -11 2q-25 9 -32 7q-34 0 -36 -9q2 -49 -5 -115q-5 -27 -5 -41t5 -57q5 -32 5 -39q0 -11 -14 -11
q-9 0 -28 11q7 64 7 158v89q-9 18 -52 0q-14 -11 -34 -78q-5 -13 -7.5 -17.5t2.5 -11.5v-7q-2 -14 -25 -32q-16 -14 -39 -21q-27 -7 -34 -2q-2 5 32 48q9 11 13 16q44 57 44 91q-27 -2 -55 -11q-2 -2 -7 -12q-4 -11 -9 -16q-9 -9 -16 -29q-2 -12 -4 -14q-3 0 -10 -2
q-29 -2 -38 -12q-3 -2 -5 -6q-5 -10 -11 -10q-16 -2 -39 85q2 7 -21 -14q-16 -11 -41 -18q-20 -2 -25 7z" />
    <glyph glyph-name="waitlove-copy" unicode="&#xe619;" 
d="M502 771q-106 0 -196 -52t-142.5 -142t-52.5 -196.5t52.5 -196.5t142.5 -142t196 -52t196 52t142.5 142t52.5 196.5t-52.5 196.5t-142.5 142t-196 52zM516 287q-5 0 -10 1l-77 -77q-10 -9 -24 -9t-23.5 9.5t-9.5 23.5t10 24l76 77v9q0 31 24 48v210q0 14 10 24t23.5 10
t23.5 -10t10 -24v-210q25 -17 25 -48q0 -24 -17 -41t-41 -17zM142 576q53 104 152 164l-19 19q-19 19 -46.5 19t-46.5 -19l-65 -65q-19 -19 -19 -46.5t19 -46.5zM907 694l-65 65q-19 19 -46.5 19t-46.5 -19l-27 -27q97 -63 146 -168q6 4 11 9l28 28q19 19 19 46.5t-19 46.5z
" />
    <glyph glyph-name="mian" unicode="&#xe6c7;" horiz-adv-x="1030" 
d="M323 435q-12 0 -14 -1t-2 -9v-77q0 -11 2 -13t14 -2h107q31 56 41 102h-148zM676 435h-164q-5 -23 -13.5 -48.5t-15.5 -39.5l-7 -14h200q28 0 34.5 2t6.5 13v77q0 7 -6.5 8.5t-34.5 1.5zM517 896q-104 0 -198.5 -40.5t-163 -109.5t-109.5 -163.5t-41 -198.5t41 -198.5
t109.5 -163.5t163 -109.5t198.5 -40.5t198.5 40.5t163.5 109.5t109.5 163.5t40.5 198.5t-40.5 198.5t-109.5 163.5t-163.5 109.5t-198.5 40.5zM768 77h-164q-37 0 -64.5 27.5t-27.5 74.5v103h-51q-32 -64 -77.5 -100t-137.5 -85l-10 -5l-26 36l10 10q63 28 106 63.5t78 80.5
h-81q-31 0 -49 17.5t-18 48.5v77q0 27 18 44t49 17h302l25 52h-379l46 133l41 -21l-20 -61h379l-46 -103h5q36 0 64 -14.5t28 -46.5v-77q0 -35 -27.5 -50.5t-64.5 -15.5h-113v-103q0 -16 13 -33.5t28 -17.5h164v-51z" />
    <glyph glyph-name="dai" unicode="&#xe605;" 
d="M899.5 687q-6.5 -5 -8 -13t3.5 -15q88 -123 88 -275q0 -96 -37.5 -183t-100.5 -150t-150 -100.5t-183 -37.5t-183 37.5t-150 100.5t-100.5 150t-37.5 183t37.5 183t100.5 150t150 100.5t183 37.5q63 0 124 -16q8 -3 15.5 1.5t9.5 12.5t-2 15.5t-13 9.5q-65 18 -134 18
q-103 0 -196.5 -38.5t-166 -111t-111 -166t-38.5 -196.5t38.5 -196.5t111 -166t166 -111t196.5 -38.5t196.5 38.5t166 111t111 166t38.5 196.5q0 165 -96 299q-5 6 -13.5 7.5t-15 -3.5zM350 639zM387 616l67 -21q-19 -56 -45 -108v-350h-63v242q-23 -33 -49 -63
q-6 42 -17 90q68 89 107 210zM427 456l99 11q-6 66 -8 144h67q1 -72 6 -136l158 19l6 -61l-157 -19q18 -121 42 -164.5t38 -43.5q5 0 8.5 5t9.5 31t9 53q29 -20 60 -33q-10 -61 -27 -94t-54 -33q-118 0 -151 271l-98 -13zM652 612q45 -32 84 -67q-27 -26 -45 -45
q-41 42 -80 71z" />
    <glyph glyph-name="xue1" unicode="&#xe623;" 
d="M1024 384q0 -139 -68.5 -257t-186.5 -186.5t-257 -68.5t-257 68.5t-186.5 186.5t-68.5 257t68.5 257t186.5 186.5t257 68.5t257 -68.5t186.5 -186.5t68.5 -257zM243 267h253v-73q0 -31 -28 -30q-40 1 -83 5q5 -28 7 -46q48 -1 83 -1q65 0 65 64v81h232v40h-232v11l122 71
v46h-317v-40h254l-103 -58v-30h-253v-40zM261 418h43v69h407v-69h43v109h-493v-109zM364 534l37 26q-32 42 -65 78l-32 -23q30 -35 60 -81zM507 541l39 23q-28 44 -61 88l-35 -21q33 -47 57 -90zM635 530q40 43 75 83l-39 29q-32 -45 -68 -84z" />
    <glyph glyph-name="shouye-shouye" unicode="&#xe633;" 
d="M519 832l-455 -460h144v-436h234l-1 292h145v-291h231v434h143z" />
    <glyph glyph-name="zaixianketang" unicode="&#xe613;" 
d="M848 -32h-672q-46 0 -79 32.5t-33 78.5v608q0 46 33 78.5t79 32.5h672q46 0 79 -32.5t33 -78.5v-608q0 -46 -33 -78.5t-79 -32.5zM176 760q-31 0 -52.5 -21.5t-21.5 -51.5v-608q0 -30 21.5 -51.5t52.5 -21.5h672q31 0 52.5 21.5t21.5 51.5v608q0 30 -21.5 51.5
t-52.5 21.5h-672zM420 539v-189q0 -17 15.5 -25t28.5 2l129 95q11 8 11 22t-11 23l-129 95q-13 10 -28.5 2t-15.5 -25zM448 303q-20 0 -33.5 13.5t-13.5 33.5v189q0 20 14 33.5t33 13.5q15 0 28 -9l128 -95q19 -14 19 -37.5t-19 -37.5l-128 -95q-13 -9 -28 -9zM448 548
q-3 0 -6 -2.5t-3 -6.5v-189q0 -9 9 -9q3 0 5 2l128 94q4 3 4 7.5t-3 7.5l-129 94q-2 2 -5 2zM762 149h-515q-5 0 -8.5 3.5t-3.5 8.5v14q0 5 3.5 8.5t8.5 3.5h515q5 0 8.5 -3.5t3.5 -8.5v-14q0 -5 -3.5 -8.5t-8.5 -3.5zM529 168v0q0 -22 15.5 -37.5t37.5 -15.5t37.5 15.5
t15.5 37.5v0v0q0 22 -15.5 37.5t-37.5 15.5t-37.5 -15.5t-15.5 -37.5v0zM582 96q-30 0 -51 21t-21 51t21 51t51 21t51 -21t21 -51t-21 -51t-51 -21zM582 202q-14 0 -24 -10t-10 -24t10 -24t24 -10t24 10t10 24t-10 24t-24 10z" />
    <glyph glyph-name="zhengshu-" unicode="&#xe61c;" 
d="M512 832q-91 0 -174 -35.5t-143 -95.5t-95.5 -143t-35.5 -174t35.5 -174t95.5 -143t143 -95.5t174 -35.5t174 35.5t143 95.5t95.5 143t35.5 174t-35.5 174t-95.5 143t-143 95.5t-174 35.5zM307 619q60 -61 84 -88l-36 -31q-32 42 -79 92zM304 207q15 21 15 51v161h-62v37
h102v-201q24 23 58 61q3 -18 10 -45q-62 -61 -94 -98zM767 149h-380v38h72v284h39v-284h82v376h-165v38h344v-38h-138v-155h119v-38h-119v-183h146v-38z" />
    <glyph glyph-name="jiaruwomen1" unicode="&#xe6a0;" 
d="M878 70h78v96h-112v112h-96v-103q27 -10 44.5 -18t38 -20.5t32 -29.5t15.5 -37zM844 70h34q-4 20 -15.5 37t-32 29.5t-38 20.5t-44.5 18v-9h-112v-96h112v-112h39q35 4 57 10v102zM844 -32q-22 -6 -57 -10h57v10v0zM724 573q-7 105 -60 169t-151 64h-1q-98 0 -151 -64
t-61 -169q-14 -5 -21 -24.5t-4 -44.5q3 -23 14 -39.5t24 -20.5q24 -77 80 -124q4 -8 7.5 -24.5t-2 -44t-27.5 -42.5q-19 -12 -57 -26.5t-67.5 -25.5t-55.5 -34t-30 -53q-2 -9 -5 -21.5t-4.5 -19t-1 -16.5t5.5 -14.5t15 -11.5t28 -10.5t45 -7.5t65 -5.5t88.5 -3t114.5 -1.5v0
q113 0 185 4v44h-120v227h54q-8 16 -8 37t3 32.5t5 16.5q56 47 80 124q14 4 24.5 20.5t13.5 39.5q3 25 -4 44.5t-21 24.5z" />
    <glyph glyph-name="aixinjuan-copy" unicode="&#xe603;" 
d="M511.5 896q-104.5 0 -199 -40.5t-163 -109t-109 -163t-40.5 -199t40.5 -199t109 -163t163 -109t199 -40.5t199 40.5t163 109t109 163t40.5 199t-40.5 199t-109 163t-163 109t-199 40.5zM483 113q-149 95 -178 123q-12 12 -33.5 66t-36.5 101l-15 47v0q11 4 21.5 -1.5
t15.5 -13.5l5 -7q62 -114 108 -173q-10 30 -8 43.5t10 14.5l9 2q6 -5 17.5 -14.5t38.5 -42t44 -68.5q42 -87 14 -82zM286 518q0 47 17.5 81.5t45 48.5t58 13t59 -24t45.5 -64q14 33 36.5 54t47 28.5t50 2t46 -22t33.5 -47t13 -69.5q1 -89 -225 -262q-2 1 -24 18.5t-44.5 36
t-52.5 47t-52 54t-38 54.5t-15 51zM717.5 236q-12.5 -12 -57 -43t-82.5 -56t-38 -24l-14 -6q-24 0 16 83q17 36 42.5 67t41.5 44l16 14q4 0 8.5 -2t10.5 -15t-8 -43q20 27 47 70t44 73l17 30q2 3 5.5 8t14.5 11.5t22 2.5v0q0 -1 -15 -47.5t-36.5 -100.5t-34 -66z" />
    <glyph glyph-name="ziyuan" unicode="&#xe835;" 
d="M1024 384q0 212 -150 362t-362 150t-362 -150t-150 -362q0 -128 59 -239.5t161 -182.5t227 -87q14 -3 51 -3h17q105 1 199 42t162 110t108 163t40 197zM952 377q0 39 -10 75v24q10 -46 10 -92v-7zM72 384q0 46 10 92q15 -16 41.5 -14t33.5 24q4 -2 15 -6.5t15.5 -7t9 -9
t4.5 -14.5q0 -28 1 -46.5t5 -42t11.5 -37.5t21 -24.5t33.5 -10.5q3 0 12 -4.5t23 -19t23 -34.5q3 -7 11 -7t22.5 3.5t24.5 3.5q6 0 6 -5.5t-3 -25.5t-3 -40q0 -14 10.5 -31t25.5 -32t30 -28t26 -21l11 -8q0 -58 3 -78q-31 0 -58 -7q-157 26 -261 147.5t-104 282.5zM621 -39
q-6 18 -30 13q8 40 12.5 55.5t14 35t24.5 32.5q21 20 20 37t-15.5 28.5t-32.5 9.5q-9 -1 -13 4t-4.5 12t-4.5 13t-12 6q-12 1 -42.5 28.5t-45.5 35.5q-3 1 -24.5 16t-37.5 15q-6 0 -15 -2t-17 -4t-14.5 -3.5t-10.5 0t-4 6.5q0 32 -3.5 68t-3.5 37q0 3 -1 6q0 2 1 1
q9 -3 24 -3q8 0 13 18.5t14 18.5q6 0 34 -7t34 -3q2 2 8 -8q4 -5 12 -21q28 -50 39 -51q12 7 13 53q0 5 -1.5 18t-1.5 23.5t3 16.5q8 15 19.5 34.5t18 31.5t13 23.5t9 18t1.5 8.5q0 2 -9 3t-23.5 0.5t-25.5 -3.5q-4 -2 -3.5 -10.5t-6.5 -10.5q-25 -4 -44 0t-28.5 14.5
t-2.5 20.5q5 9 23 13.5t32.5 13t16.5 27.5q1 13 3 39.5t4 39.5q33 -6 39 21q6 29 -26 52q-20 15 -51 19q141 -3 253 -84.5t157 -209.5q-4 4 -11 4q-16 42 -45 33q-26 -7 -32 -41q-4 -18 2 -37q-45 -34 -67 -65.5t-21 -57t10 -44t27 -34.5q21 -20 55 -72q-8 -22 12 -21
q28 1 58 39q11 14 18 30q-28 -110 -111 -191t-196 -109z" />
    <glyph glyph-name="kao" unicode="&#xe616;" 
d="M73 831v-888h889v888h-889zM872 463h-299q-43 -31 -86 -60h333v-51h-349l-32 -66h301q-16 -128 -22 -156q-17 -97 -118 -97q-76 0 -164 3q-6 34 -16 65q90 -7 169 -7q59 0 71 51q7 29 15 90h-295v51l33 66h-7q-113 -67 -234 -119q-15 26 -36 54q187 75 341 176h-322v52
h263v95h-201v52h201v90h58v-90h158v-52h-158v-95h76q116 85 215 186l46 -39q-85 -79 -171 -147h230v-52z" />
    <glyph glyph-name="zhibo" unicode="&#xe648;" 
d="M525 401q-40 23 -69 41l-17 10v-280l17 10q5 3 14 9l1 1q36 22 57 34q87 48 133 76l17 10l-17 10q-82 46 -136 79v0zM837 688h-182l50 91q6 10 3.5 22t-12.5 19q-10 6 -21 2.5t-18 -14.5l-67 -120h-143l-67 120q-6 11 -17 14.5t-21 -2.5q-10 -7 -12.5 -19t2.5 -22l51 -91
h-170q-53 0 -92 -40.5t-39 -96.5v-478q0 -56 39 -96.5t92 -40.5h624q56 0 94 40t38 97v478q0 56 -39 96.5t-93 40.5v0zM715 271q-5 -3 -43 -25l-2 -1q-70 -42 -116 -69q-26 -15 -69 -40q-25 -15 -28 -16l-3 -1l-1 -2q-8 -7 -21 -7q-21 0 -35 14.5t-14 35.5v301q0 22 14.5 38
t34.5 16q13 0 26 -7q2 -1 30 -18h1l62 -36q135 -77 163 -95h1q22 -14 23 -44q0 -31 -23 -44v0z" />
    <glyph glyph-name="task" unicode="&#xe64b;" 
d="M811 833h-598q-63 0 -106.5 -44t-43.5 -106v-599q0 -62 44 -105.5t106 -43.5h598q62 0 106 43.5t44 105.5v599q0 62 -44 106t-106 44zM319 538v-506h-68v369q-48 -80 -97 -115l-32 64q101 123 179 357q1 4 4.5 13.5t4.5 15.5l71 -18q-2 -5 -4 -15q-17 -61 -39 -116
q-10 -27 -19 -49zM870 559h-251v-121h209v-61h-209v-121h230v-65h-230v-159h-67v527h-44q-21 -38 -46 -78q-2 -4 -6 -11t-5 -8l-46 -71l-33 33l-17 17q94 121 147 295l70 -15q-5 -39 -33 -100h331v-62z" />
    <glyph glyph-name="pingou" unicode="&#xe60a;" 
d="M752 368h-63v138h53q28 20 0 38h-75q12 15 32 55q4 17 -10 25q-16 6 -24 -8q-25 -45 -43 -72h-67q4 9 -4 23q-7 11 -14 24q-6 13 -14 24q-13 17 -29 6q-16 -12 -6 -28q17 -23 33 -49h-65q-31 -18 0 -38h46v-138h-54q-17 0 -17 -19q0 -20 17 -20h50q-8 -83 -61 -154
q-12 -16 5 -29q18 -8 32 9q53 77 65 174h110v-170q0 -21 20 -23q20 2 20 23v170h63q30 21 0 39zM648 368h-105v138h105v-138zM429 398q-10 14 -26 4q-12 -8 -14 -8l-2 -1q-1 0 -3 -1v104h33q14 2 16 22q-2 18 -16 20h-32v79q0 17 -20.5 17t-20.5 -17v-79h-45q-14 -2 -14 -20
q0 -20 14 -22h45v-126q-26 -13 -55 -22q-18 -8 -16 -27q8 -20 26 -14q33 12 45 20v-126q2 -22 -36 -14q-19 4 -23 -14q0 -20 17 -24q85 -19 83 52v145q6 2 20 12q13 10 18 12q14 12 6 28zM512 816q-117 0 -217 -58t-157.5 -157.5t-57.5 -217t57.5 -217t157.5 -157.5t217 -58
t217 58t157.5 157.5t57.5 217t-57.5 217t-157.5 157.5t-217 58zM512 -3q-105 0 -194 51.5t-141 140.5t-52 194.5t52 194.5t141 140.5t194 51.5t194 -51.5t141 -140.5t52 -194.5t-52 -194.5t-141 -140.5t-194 -51.5z" />
    <glyph glyph-name="koudaiyizhan" unicode="&#xe610;" 
d="M255 896h511q106 0 181 -75t75 -180v-511q0 -106 -75 -181t-181 -75h-511q-105 0 -180 75t-75 181v511q0 105 75 180t180 75zM661 630l-23 28l-1 1l-1 1q-1 1 -2.5 3t-2.5 3l-1 1q-1 0 -1 1l-5 5l-2 2q-2 2 -6 4q-1 0 -2 2q-1 1 -3 2t-3 2l-1 0.5t-1 1.5q-1 0 -3 1.5
t-3 2.5h-0.5t-0.5 1q-1 0 -3.5 1.5t-3.5 2.5h-0.5h-1.5q-2 2 -7 4h-1v0q-2 1 -4.5 2t-4.5 2q-29 12 -60 12h-9q-3 0 -4 -1h-4q-1 0 -2.5 -0.5t-2.5 -0.5h-3q-1 -1 -2.5 -1h-2.5t-1.5 -0.5t-1.5 -0.5t-2.5 -0.5t-2.5 -0.5h-1.5h-0.5l-7 -2h-0.5h-0.5q-1 -1 -3 -1.5t-3 -0.5
t-1 -1q-1 0 -3.5 -1t-3.5 -2q-7 -2 -8 -3l-0.5 -0.5l-0.5 -0.5q-1 0 -3.5 -1.5t-3.5 -1.5t-1.5 -0.5l-0.5 -0.5l-2.5 -1.5t-4.5 -1.5q0 -1 -0.5 -1h-0.5h-1q-1 -1 -5 -4l-1 -0.5l-1 -0.5q-3 -2 -5 -5q-1 0 -3 -2q-1 -1 -5 -4q-1 0 -1.5 -0.5l-1.5 -1.5q-6 -6 -12 -13l-2 -1
l-23 -28l-157 -197q-2 -3 -5 -8t-6.5 -15.5t2.5 -17.5v-1h1l1 -2h1v-1l3 -2q1 -1 3 -2q0 -1 0.5 -1t0.5 -1h1q7 -3 10 -3h73q3 0 5 -1q5 -2 6 -7v-2q0 -19 -13 -34q-2 -2 -0.5 -3t4.5 0q30 16 45 46v1l1 2q5 10 7 21v0q1 7 1 10v1v0q0 15 -7 22.5t-14 8.5h-7h-12v0
q-4 0 -4 4q0 2 1 3l1 1l100 127l16 19l4 5l2 1l1 1l1 1l1 1l1 1h1l1 1l1 1q0 1 0.5 1h0.5l1 1q1 1 1.5 1h0.5l1 2q1 1 2 1q1 1 2 1l1 2q1 0 1.5 0.5l0.5 0.5l2 1l1 0.5t1 1.5q1 1 2 1t3 1l0.5 0.5l1.5 1.5l1 0.5l1 0.5q2 1 3 1l2 1q2 1 3 1q0 1 1 1h1q2 1 4.5 2t4.5 2
q11 3 25 5h4.5h5.5q16 0 35 -5q14 -4 26.5 -12t17.5 -14l6 -6l22 -26l100 -127v-1q2 -3 2 -4q0 -3 -4 -3h-3h-3t-4 -1l-1 -1q-8 -3 -13 -9l-0.5 -1t-1.5 -2v-1q-1 -1 -2 -3v0v-1v0q-1 -1 -1.5 -2t-0.5 -2v-1v-2v-1q-1 -8 -1 -15v-6q-1 -65 -31 -115q-2 -6 -8 -15t-26.5 -32
t-45 -40t-64.5 -30.5t-83 -10.5q-36 1 -71 14q-49 19 -84 49l-14 13q-5 5 -7.5 3.5t0.5 -7.5q4 -5 10 -15q29 -42 79 -68t113 -31q21 -2 28 -6q17 -10 14 -45q-1 -1 0 -2.5t3.5 -1t5.5 3.5q1 1 5.5 7.5t9.5 12.5t14 15.5t19 17.5q11 9 34 22q11 6 14 7q59 32 97.5 88.5
t47.5 125.5q2 19 15 21h42q7 0 13 3l3 2l1 1t2 1l2 3h1v1l2 1v1v0q6 8 3 18t-6.5 15.5t-5.5 7.5zM555 493q8 0 14 -6t6 -14.5t-6 -14.5t-14 -6t-14 6t-6 14.5t6 14.5t14 6zM286 297l-2.5 -0.5t-4.5 -0.5h-11q-13 -1 -3 -17q2 -3 4.5 -6t5 -5.5l2.5 -2.5q32 -37 89 -59
q29 -11 59 -13q37 -2 70.5 8.5t55 27t37.5 33t23 27.5l6 12q31 53 25 121q-2 20 4 27q4 4 13.5 13t10.5 11q3 1 2.5 4t-4.5 3q-7 1 -16 1.5t-15 0.5q-9 1 -10 6q-16 36 -46 59t-69 23q-49 0 -85.5 -36t-41.5 -87q-3 -20 -3 -49v-1q0 -39 -27.5 -68t-68.5 -32zM725 176z
M592 176q0 -55 39 -93.5t94 -38.5t94 38.5t39 93.5t-39 94t-94 39t-94 -39t-39 -94zM725 33q-59 0 -101 42t-42 101t42 101t101 42t101 -42t42 -101t-42 -101t-101 -42zM725 298q-51 0 -86.5 -35.5t-35.5 -86.5t35.5 -86.5t86.5 -35.5t86.5 35.5t35.5 86.5t-35.5 86.5
t-86.5 35.5zM684 163.5q0 -7.5 7.5 -7.5t7.5 7.5t-7.5 7.5t-7.5 -7.5zM684 136.5q0 -7.5 7.5 -7.5t7.5 7.5t-7.5 7.5t-7.5 -7.5zM684 189q0 -8 7.5 -8t7.5 8t-7.5 8t-7.5 -8zM760 195h-45q-6 0 -6 -6t6 -6h45q6 0 6 6t-6 6zM771 236h-4q-4 11 -15 11h-54q-12 0 -16 -11h-3
q-8 0 -14.5 -6t-6.5 -14v-96q0 -8 6.5 -14t14.5 -6h92q8 0 14.5 6t6.5 14v96q0 8 -6.5 14t-14.5 6zM699 236h53q6 0 6 -5.5t-6 -5.5h-53q-6 0 -6 5q0 3 1.5 4.5t4.5 1.5zM780 120q0 -9 -9 -9h-92q-9 0 -9 9v96q0 9 9 9h3q5 -11 16 -11h54q12 0 15 11h4q9 0 9 -9v-96z
M760 169h-45q-6 0 -6 -5.5t6 -5.5h45q6 0 6 5.5t-6 5.5zM760 142h-45q-6 0 -6 -5.5t6 -5.5h45q6 0 6 5.5t-6 5.5z" />
    <glyph glyph-name="free" unicode="&#xe6a7;" 
d="M901 523q34 -88 29 -181q-5 -102 -54 -192q-43 -81 -112.5 -136t-153.5 -80q-81 -26 -170.5 -17t-170 52.5t-135.5 112.5t-80 154q-26 81 -17 170.5t52.5 170t113 135.5t153.5 80q81 26 170.5 17t169.5 -52q37 -20 70 -47q27 -22 48 -46q10 -10 5 -21t-15.5 -13t-20.5 6
q-20 22 -43 41q-30 24 -64 42q-72 40 -153.5 48t-154.5 -15q-76 -23 -139 -73t-102.5 -122.5t-47 -154t14.5 -154.5q23 -76 73 -139t122.5 -102.5t154 -47.5t154.5 15q76 23 139 73t102 123q45 81 49 174q4 83 -25 161q-5 13 2.5 22.5t19.5 8.5t16 -13zM291 198
q120 39 155 118h-110v104q-3 -4 -9 -8t-18 -15q-2 2 -7 8q-10 14 -14 18q72 48 129 135l29 -12q-7 -11 -9 -14q-6 -8 -12 -17h154v-27l-44 -42h94v-130h-116v-78q-3 -29 32 -28h63q30 -1 33 23q5 20 6 57q13 -4 31 -10q-2 -29 -8 -55q-7 -44 -55 -42h-78q-30 -3 -43.5 10.5
t-9.5 42.5v80h-4q-34 -94 -168 -148q-10 14 -21 30zM598 418h-100q-1 -40 -10 -74h110v74zM366 418v-74h92q10 33 11 74h-103zM539 489h-135q0 -1 -1 -1q-18 -22 -41 -42h133z" />
    <glyph glyph-name="xiadan" unicode="&#xe7c5;" 
d="M831 703h-638q-53 0 -90.5 -37.5t-37.5 -90.5v-510q0 -53 37.5 -90.5t90.5 -37.5h638q53 0 90.5 37.5t37.5 90.5v510q0 53 -37.5 90.5t-90.5 37.5zM470 139l-256 171l64 63q46 -27 88.5 -56t61.5 -45l20 -16q5 5 27 28.5t31 32t31.5 30t41.5 35.5t48.5 35t64 41.5
t75.5 42.5l43 -21q-68 -55 -102.5 -83t-81 -68.5t-71 -67.5t-48 -59t-37.5 -63zM895 831h-766q-17 0 -29.5 -12.5t-12.5 -30t12.5 -30t29.5 -12.5h766q18 0 30.5 12.5t12.5 30t-12.5 30t-30.5 12.5z" />
    <glyph glyph-name="wenjiandai1" unicode="&#xe621;" 
d="M905 -128h-786q-49 0 -83.5 35t-34.5 84v786q0 49 34.5 84t83.5 35h786q49 0 83.5 -35t34.5 -84v-786q0 -49 -34.5 -84t-83.5 -35zM119 834q-23 0 -40 -16.5t-17 -40.5v-786q0 -24 17 -40.5t40 -16.5h786q23 0 40 16.5t17 40.5v786q0 24 -17 40.5t-40 16.5h-786zM512 369
q-139 0 -256.5 49.5t-186 134t-68.5 184.5q0 13 9 21.5t21.5 8.5t21.5 -8.5t9 -21.5q0 -83 60.5 -153.5t164 -111.5t225.5 -41t225.5 41t164 111.5t60.5 153.5q0 13 9 22t21.5 9t21.5 -9t9 -22q0 -100 -68.5 -184.5t-186 -134t-256.5 -49.5zM512 623zM442 623
q0 -29 20.5 -49.5t49.5 -20.5t49.5 20.5t20.5 49.5t-20.5 49.5t-49.5 20.5t-49.5 -20.5t-20.5 -49.5z" />
    <glyph glyph-name="pinche" unicode="&#xe66e;" 
d="M533 391v-43h135v163h-135v-120zM843 896h-662q-75 0 -128 -53t-53 -128v-662q0 -75 53 -128t128 -53h662q75 0 128 53t53 128v662q0 75 -53 128t-128 53zM209 519v43h79v112h49v-112h68v-43h-68v-122q39 13 71 22q2 -30 2 -48q-27 -8 -73 -23v-188q5 -71 -69 -71
q-6 0 -26 -3h-25v8q-5 35 -10 43h51q33 -3 30 25v171q-32 -8 -84 -25l-7 50q22 5 76 21q10 2 15 5v135h-79zM810 305h-94v-227h-49v227h-137q-3 -143 -125 -234q-5 8 -28 28q-15 9 -24 24q126 53 131 182h-94v43h97v163h-64v43h206q57 83 79 128l51 -31q-8 -11 -30 -38
q-189 -227 -273 -511l334 452v-43h-74v-163h94v-43zM461 651l36 28q33 -33 74 -84l-43 -28q-36 51 -67 84z" />
    <glyph glyph-name="zaixianketang1" unicode="&#xe656;" horiz-adv-x="1040" 
d="M4 489q171 -113 511 -338q-1 -10 -3 -30.5t-3 -30.5q-149 109 -313 228q-2 2 -29 12q-1 -51 -4 -171q34 -23 100.5 -71t120 -85t103.5 -67q29 -18 54 0q249 180 320 231v207q27 17 79.5 51t77.5 50q7 5 6 18.5t-8 18.5q-303 210 -466 322q-15 9 -34.5 7t-34.5 -11
q-146 -94 -469 -303l-12 -16q1 -4 2.5 -12t1.5 -10zM367 658l145 -92v99l242 -159l-242 -164v102l-145 -104v318z" />
    <glyph glyph-name="live" unicode="&#xe636;" 
d="M825 686h-177l48 83q6 11 3 24t-14 20q-11 6 -23.5 2.5t-20.5 -15.5l-66 -114h-140l-66 114q-7 12 -19.5 15.5t-23.5 -2.5q-11 -7 -14 -20t3 -24l48 -83h-164q-55 0 -95.5 -40.5t-40.5 -96.5v-462q0 -56 40.5 -96t95.5 -40h626q57 0 96.5 39.5t39.5 96.5v462q0 56 -41 96
q-39 41 -95 41v0zM832 -12h-638q-33 0 -63.5 30.5t-30.5 63.5v462q0 34 26 65t58 31h655q32 0 58 -31t26 -65v-462q0 -34 -29 -64t-62 -30v0zM715 355l-301 175q-8 5 -16.5 5t-16.5 -5q-16 -9 -16 -28v0v-351q0 -13 9.5 -23t23.5 -10v0q8 0 16 5l301 175q17 9 17 28t-17 29
v0zM401 498l294 -172l-294 -171v343z" />
    <glyph glyph-name="ti" unicode="&#xe62e;" 
d="M1024 384q0 -139 -68.5 -257t-186.5 -186.5t-257 -68.5t-257 68.5t-186.5 186.5t-68.5 257t68.5 257t186.5 186.5t257 68.5t257 -68.5t186.5 -186.5t68.5 -257zM268 144q28 44 42 105q57 -81 177 -84q84 -7 276 -2q10 25 15 42q-197 -9 -291 -3q-47 1 -83 16v74h87v35
h-87v57h93v35h-248v-35h120v-147q-31 22 -51 58q4 30 6 64h-37q-3 -111 -43 -165q13 -25 24 -50zM282 446h35v16h119v-16h35v206h-189v-206zM436 573h-118v47h118v-47v0zM318 542h118v-48h-118v48zM610 429q0 -81 -29 -121q-29 -42 -104 -67q17 -16 29 -31q77 30 110 81
l6 12q63 -48 106 -88l29 29q-38 32 -122 93q11 37 11 90v67h-36v-65zM517 325h36v193h150v-193h36v227h-106q6 31 11 62h123v35h-270v-35h107q-3 -27 -9 -62h-78v-227z" />
    <glyph glyph-name="pinche1" unicode="&#xe60b;" 
d="M1014 595q-5 6 -18 13q-3 1 -8 3.5t-9 4t-8 2.5q-12 2 -36 1q-8 -2 -13.5 -10.5t-4.5 -16.5l3 -10q2 -7 -4 -11q-4 -3 -10 1q-7 6 -18 31q-18 38 -37 74q-20 33 -24 37q-21 30 -36 42q-14 11 -39 15q-35 6 -72 8q-1 0 -1.5 0.5l-0.5 0.5l-20 2q-4 0 -5 1h-35q-1 1 -5 1
h-13t-12 1h-164q-4 -1 -10.5 -1h-9.5q-4 0 -5 -1h-39q-1 -1 -2 -1q-10 -2 -31 -3t-31 -3q-5 -1 -15 -2t-15 -3q-1 -2 -8 -2q-16 -2 -33 -19q-17 -16 -38 -48q-19 -29 -32 -56q-20 -40 -29 -61q-1 -3 -6 -9q-8 -8 -13 -5q-10 6 -4 16q6 11 -1 22.5t-19 10.5q-2 0 -16.5 0.5
t-16.5 -1.5q-20 -6 -33 -16q-8 -6 -14 -17v-1q-1 -1 -2 -1v-11q8 -15 27 -21q16 -6 40 -9q4 0 16 -1t18 -3q4 -1 5 -6q6 -13 -7 -23q-24 -19 -40 -48q-1 -3 -7 -10.5t-7.5 -12.5t-11.5 -27q-3 -6 -3 -14q1 -23 2.5 -69t2.5 -69q0 -28 5 -86q4 -45 36 -66q18 -12 34 -12h795
q35 0 59 30q12 17 16 46l7 121q1 18 2 52.5t2 51.5q1 12 -8 30q-10 20 -16 29q-12 20 -16 25q-8 11 -30 31q-5 5 -7 17q-1 10 10 13q1 0 2.5 0.5t2.5 0.5t43 5q21 2 35 11q12 6 14 15q2 4 3 4v4q-2 1 -4 3t-3.5 5.5t-3.5 4.5zM273 207q0 -16 -6 -24q-6 -7 -20 -9
q-9 -1 -30 -1q-2 14 -7 36q6 -1 20 -1q8 0 8 12v48l-27 -5l-3 37q5 1 15 2t15 2v46h-28v33h28v46h35v-46h24v-33h-24v-40l23 5q-1 -13 -3 -36l-20 -3v-69zM469 265h-32v-93h-36v93h-42q-7 -58 -39 -97q-7 8 -28 28q24 28 32 69h-24v32h27l1 53h-20v32h32q-7 12 -23 33l28 16
q16 -18 28 -35l-22 -14h61l-17 11q13 17 27 37l30 -17q-17 -22 -25 -31h35v-33h-24v-53h32zM815 220h-100v-49h-36v49h-118v33h117v27h-93v31q22 38 31 56h-47v33h63q1 3 13 31l39 -6l-12 -25h134v-33h-151q-24 -45 -29 -54h52v41h37v-41h75v-32h-75v-27h100v-34zM810 550
q-20 -2 -82 -2h-25q-2 2 -10 1t-10 -1h-247l-44 -0.5t-44 0.5q-12 0 -34.5 -0.5t-34.5 0.5h-19.5t-23 1t-19.5 1q-12 1 -16 8t1 18q23 48 38 71q25 39 54 59q10 7 26 10q18 4 74 7q18 2 40.5 2.5t40.5 0t40 0.5q63 1 108 -2q44 -2 56 -4q4 -1 14 -2t17.5 -3t13.5 -6
q16 -8 37 -30q9 -11 28 -37q2 -3 4 -7t4.5 -8.5t3.5 -7.5l22 -43q3 -8 3 -11q-3 -14 -16 -15zM412 383h-49v-1h49v1zM162 63q0 5 -1.5 6.5t-6.5 1.5q-38 0 -56 -1q-18 0 -34 13q-6 4 -14 15q-2 4 -5 3q-1 0 -3 -4q0 -1 -0.5 -2.5t-0.5 -2.5q1 -12 0.5 -46t0.5 -46
q0 -6 2.5 -10t6.5 -8q2 -2 5.5 -3t4.5 -3h84q18 7 16 31q0 9 0.5 27.5t0.5 28.5v0zM979 103q-2 0 -4 -2q-1 -4 -3 -5q-16 -24 -42 -25h-59q-10 0 -10 -10v-66q0 -9 6 -13q1 -2 3.5 -3.5t3.5 -3.5h91q10 5 13 12q3 3 3 13v98q2 5 -2 5zM386 647h-27q-12 0 -22.5 -11.5
t-9.5 -22.5v-24q1 -32 36 -35h23q10 0 25 13q9 8 9 34v8q1 14 -9.5 26t-24.5 12zM655 647h-27q-12 0 -22 -11.5t-10 -22.5v-24q1 -32 36 -35h24q10 0 24 13q9 8 9 34v8q1 14 -9.5 26t-24.5 12zM363 350v-2v-30v-20h39v52h-39z" />
    <glyph glyph-name="replace" unicode="&#xe639;" 
d="M513.5 892q-102.5 0 -196.5 -40t-161.5 -108t-108 -161.5t-40.5 -196.5t40.5 -196.5t108 -161.5t161.5 -108t196.5 -40t196.5 40t161.5 108t107.5 161.5t40 196.5t-40 196.5t-107.5 161.5t-161.5 108t-196.5 40zM616 647q51 -43 85 -84l-27 -27q-29 39 -83 86zM372 144
h-41v310q-24 -33 -62 -72l-12 41q89 99 131 229l37 -18q-22 -64 -53 -118v-372zM733 172q-15 -23 -38 -24q-40 0 -83 52q-47 57 -70 150q-11 42 -17 102l-119 -15l-6 38l122 15q-5 70 -7 161h41q0 -88 5 -156l179 23l6 -38l-182 -23q5 -53 14 -91q19 -86 55 -133
q32 -44 60 -45q22 0 34 105l34 -20q-11 -68 -28 -101z" />
    <glyph glyph-name="btn_che" unicode="&#xe6e7;" 
d="M389 317v0q0 -8 37 -14.5t89.5 -6.5t89.5 6.5t37 14.5v0q0 9 -37 15t-89.5 6t-89.5 -6t-37 -15v0zM289 401q-7 0 -23.5 1t-25 0.5t-20 -2t-16.5 -6.5t-5 -14q0 -22 31 -53t59 -31t48 15.5t20 37.5t-20 37t-48 15zM599 601h-173q-35 0 -67.5 -36.5t-32.5 -68.5h379
q0 33 -28 69t-78 36zM742 401q-29 0 -49 -15t-20 -37t20 -37.5t49 -15.5q27 0 58 31t31 53q0 9 -5 14t-16 6.5t-19.5 2t-25.5 -0.5t-23 -1zM874 884h-714q-59 0 -101 -42t-42 -101v-714q0 -59 42 -101t101 -42h714q59 0 101 42t42 101v714q0 59 -42 101t-101 42zM894 233
q-9 -20 -19.5 -31.5t-22.5 -12t-21.5 2t-22.5 13t-19.5 17t-16.5 18.5q-3 2 -4 4q-14 11 -27 9.5t-26 -9.5q-22 -15 -97 -24t-164.5 -4t-138.5 28q-44 20 -53 -11q-3 -12 -14 -25t-27.5 -22.5t-39.5 2t-45 45.5q-20 93 21 147q13 18 21 43.5t0 30.5q-3 2 -14 2.5t-18.5 6.5
t-9.5 22q-3 19 16.5 32t44.5 6t34 -38h42q0 6 1.5 15t9 33.5t18.5 44.5t34 39t53 26q48 11 106 12.5t95.5 -3t51.5 -9.5q10 -4 20 -9t28 -18.5t31 -29.5t24 -42.5t12 -58.5h53q5 36 40 41q30 5 42 -14q5 -7 2 -16q-4 -16 -8 -20t-10.5 -5t-12.5 -7q-15 -13 10 -63
q51 -101 21 -168z" />
    <glyph glyph-name="zuoye" unicode="&#xe601;" 
d="M849 305v-263q0 -44 -31 -75.5t-76 -31.5h-535q-44 0 -75.5 31.5t-31.5 75.5v682q0 44 31.5 75.5t75.5 31.5h535q45 0 76 -31.5t31 -75.5v-160h40v174q0 55 -39 94t-94 39h-562q-55 0 -94.5 -39t-39.5 -94v-709q0 -55 39.5 -94t94.5 -39h562q55 0 94 39t39 94v281h-40v-5
zM702 604h-455v-40h455v40zM702 390h-455v-40h455v40zM247 136h214v40h-214v-40zM648 169l317 332l-29 28l-317 -332z" />
    <glyph glyph-name="shizhong1" unicode="&#xe638;" 
d="M736 365h-232v231q0 12 -7.5 20t-19 8t-19 -8t-7.5 -20v-257q0 -21 20 -26q4 -1 8 -1h257q12 0 20 7.5t8 19t-8 19t-20 7.5zM505.5 773q-108.5 0 -200.5 -53.5t-145 -145.5t-53 -200t53 -200t145 -145.5t200.5 -53.5t200.5 53.5t145.5 145.5t53.5 200t-53.5 200
t-145.5 145.5t-200.5 53.5zM506 19q-96 0 -177.5 47.5t-128.5 129.5t-47 178t47 178t128.5 129.5t177.5 47.5t177 -47.5t128.5 -129.5t47.5 -178t-47.5 -178t-128.5 -129.5t-177 -47.5z" />
  </font>
</defs>
</svg>
